<svg fill="none" xmlns="http://www.w3.org/2000/svg" viewBox="0 0 643 174"><path d="M37.435 143.047c0-26.204 31.361-38.815 31.361-56.338 0-9.172-9.523-18.016-18.554-26.204H71.26v-7.861H42.033c-4.27-4.422-7.389-8.517-7.389-12.447 0-5.569 4.433-9.827 12.643-9.827 14.777 0 30.54 7.043 31.36 20.8l.329 5.077h4.433c.164-3.767.328-7.534 2.134-11.792 2.463-5.568 8.046-10.645 8.046-17.524 0-6.715-9.523-12.447-21.838-12.447-27.091 0-50.406 18.507-52.705 38.16H0v7.86h19.375c3.612 17.197 25.45 26.368 25.45 41.108 0 10.645-15.435 20.963-15.435 40.288 0 15.231 8.538 23.748 25.45 32.1l3.776-5.732c-14.613-7.697-21.18-14.903-21.18-25.221z" fill="#FF6060"/><path d="M123.11 145.503l27.256-1.801-3.12-26.859c.328-8.844.985-23.42.985-35.375 0-12.61-.492-24.73-1.478-34.229-3.283-.491-8.209-.819-13.792-.819-16.09 0-38.913 2.293-54.347 8.025 1.97 18.179 6.404 35.539 15.434 49.296-4.926 3.276-11.165 6.551-18.225 11.3-1.15 15.723 6.896 30.626 24.464 30.626 10.18 0 18.226-5.404 22.823-17.36v17.196zM111.781 95.88l-.164-.328c-11.001-8.352-17.733-15.394-23.316-24.73 10.837-5.732 23.315-10.972 35.794-13.593v24.73c0 29.316-2.627 49.132-10.508 49.132-6.404 0-12.971-9.007-14.613-23.911 5.254-4.585 8.538-7.042 12.807-11.3zM161.065 143.538h25.778l-1.642-62.89 1.314-40.124V15.14l-1.478-.655-17.404 16.214-4.598-15.395-3.448.491 3.12 65.838-1.642 61.906zM267.721 116.024c0-9.99-6.896-17.196-15.762-23.092 3.776-7.37 10.836-13.102 10.836-24.566 0-10.81-12.971-21.946-30.539-21.946-18.554 0-33.167 13.266-33.167 28.17 0 12.282 6.404 20.144 14.942 26.203-11.658 7.37-19.868 15.067-19.868 26.368 0 9.171 9.031 18.506 32.346 18.506 21.673 0 41.212-12.119 41.212-29.643zm-56.974-51.261c0-3.603 1.642-6.224 9.03-6.224 12.807 0 26.928 12.447 27.256 31.445-16.419-9.171-36.286-15.067-36.286-25.221zm-2.463 50.606c0-3.931 2.627-6.715 19.703-6.551 12.807 6.223 24.793 10.973 24.793 19.98 0 2.948-1.971 4.422-5.911 4.422-15.27 0-38.585-9.826-38.585-17.851zM337.774 116.352c-28.077-4.586-44.988-10.482-53.034-18.016l56.646-14.74-1.313-7.205-4.269 1.146c-8.21-6.55-11.822-14.084-11.822-20.472 0-5.404 2.463-10.154 7.06-13.101l-3.94-4.422-7.881 6.878c-26.435 0-46.631 18.343-46.631 43.236 0 28.006 18.554 45.857 59.602 56.011l5.582-29.315zm-58.78-30.135c0-10.154 7.553-17.36 18.718-17.36 2.298 0 4.761.328 7.388.983.329 5.732 1.806 9.826 5.254 14.412l-30.211 7.861c-.821-1.965-1.149-3.93-1.149-5.896zM350.124 145.176l26.107-1.638-.493-9.499c0-49.623 5.09-70.422 14.613-70.422 4.598 0 12.15 5.077 12.15 36.357h4.762c0-32.427 14.613-35.702 14.613-45.038 0-9.007-10.18-16.377-17.897-16.377-9.851 0-21.673 10.973-31.196 38.65l-.821-16.704-1.15-17.852-26.106 5.569 8.21 66.656-2.792 30.298z" fill="#FF6060"/><path d="M449.385 1.874c-1.149-1.31-3.612-2.13-5.91-1.802l-2.956 13.593c-5.911 0-13.628-.163-21.673 3.767-2.463 14.412 6.239 27.842 18.718 27.842 3.119-11.464 8.866-32.591 11.821-43.4zm-1.97 141.664c0-29.971-.821-59.941-2.463-89.584l-26.106 4.258 5.418 35.866-3.284 49.46h26.435zM522.008 116.352c-28.077-4.586-44.988-10.482-53.034-18.016l56.646-14.74-1.313-7.205-4.269 1.146c-8.21-6.55-11.822-14.084-11.822-20.472 0-5.404 2.463-10.154 7.06-13.101l-3.94-4.422-7.882 6.878c-26.434 0-46.63 18.343-46.63 43.236 0 28.006 18.554 45.857 59.601 56.011l5.583-29.315zm-58.78-30.135c0-10.154 7.552-17.36 18.717-17.36 2.299 0 4.762.328 7.389.983.328 5.732 1.806 9.826 5.254 14.412l-30.211 7.861c-.821-1.965-1.149-3.93-1.149-5.896zM567.309 143.538h27.42l-1.97-61.906 2.298-44.71V20.543l-36.778-1.146 10.672 25.057 1.478 37.177-3.12 61.906zM615.252 143.538h27.42l-1.971-61.906L643 36.922V20.543l-36.779-1.146 10.673 25.057 1.477 37.177-3.119 61.906z" fill="#FF6060"/></svg>