<svg width="748" height="561" viewBox="0 0 748 561" fill="none" xmlns="http://www.w3.org/2000/svg">
<path d="M641.087 254.412C641.095 255.617 640.427 257.283 639.475 258.108C636.327 261.118 633.662 261.255 631.759 258.556C628.773 254.406 625.69 241.923 625.973 235.435C626.023 233.963 625.796 230.681 625.411 228.033C624.953 225.418 624.653 222.168 624.659 220.796C624.768 219.459 624.14 215.47 623.44 211.915C622.71 208.293 622.426 205.278 622.72 205.147C623.014 205.017 622.714 201.768 622.101 198.013C621.458 194.191 621.082 190.573 621.27 190.006C621.458 189.439 621.008 185.854 620.292 182.064C619.576 178.275 619.127 174.689 619.358 174.023C619.546 173.456 619.081 169.636 618.275 165.645C617.469 161.653 616.96 157.933 617.148 157.367C617.336 156.8 616.921 154.085 616.226 151.333C615.575 148.481 615.109 144.661 615.2 142.688C615.247 140.814 614.754 137.329 613.988 135.011L612.71 130.747L610.063 131.52L608.795 131.875C607.09 132.352 604.611 133.045 602.564 133.643C597.021 135.22 590.317 134.976 587.315 133.169C586.236 132.521 585.01 131.938 584.7 131.834C582.709 131.51 577.641 124.258 574.683 117.599C571.499 110.234 566.786 93.8844 567.741 93.4602C568.035 93.3297 567.758 91.5196 567.215 89.5057C565.53 83.731 563.598 74.0383 563.931 73.0048C564.075 72.538 563.511 69.4865 562.71 66.2984C560.916 59.6859 560.282 54.8936 561.09 54.5347C561.384 54.4042 561.553 53.2014 561.516 51.9295C561.286 48.246 566.374 44.4556 570.489 45.2051C572.096 45.4576 572.764 46.3687 574.587 50.4719C575.782 53.1625 576.73 56.2852 576.604 57.3881C576.442 59.7955 577.223 64.5227 578.794 70.8315C579.43 73.4488 579.906 76.7001 579.797 78.0373C579.791 79.4092 580.376 83.4983 581.253 87.0553C582.086 90.7122 582.682 94.2325 582.701 94.8685C582.659 97.545 587.145 115.365 588.759 118.997C590.522 122.966 593.199 124.836 595.623 123.76C596.211 123.499 597.756 123.215 599.14 123.164C600.421 123.078 601.936 122.727 602.42 122.432C602.831 122.169 603.361 122.175 603.511 122.511C603.66 122.847 604.677 122.959 605.765 122.637L607.751 122.158L604.046 113.817C600.43 105.678 596.113 91.4071 596.406 88.6999C596.504 87.9314 595.636 83.4041 594.575 78.6404C593.441 73.9093 592.736 69.5511 592.851 69.017C593.068 68.5175 592.741 65.6026 592.177 62.5511C591.613 59.4996 591.278 55.3799 591.325 53.5066C591.416 51.5333 591.359 49.6253 591.18 49.2217C591.001 48.8181 591.404 47.3503 592.044 46.0191C594.778 40.2946 601.337 41.005 604.779 47.3686C606.806 51.1394 608.584 57.5175 608.485 60.4611C608.52 61.3315 609.192 65.2208 610.085 69.0122C610.904 72.8362 611.579 77.1271 611.543 78.4318C611.537 79.8037 612.196 83.8601 612.999 87.4497C613.832 91.1066 614.61 95.4321 614.68 97.173C614.907 100.455 618.068 113.709 619.413 116.735C620.01 118.081 620.867 118.425 623.282 118.319C624.99 118.204 626.595 118.055 626.889 117.925C627.182 117.794 627.246 116.155 627.013 114.245C626.78 112.335 626.917 110.664 627.211 110.533C627.725 110.305 627.062 103.27 626.091 98.7081C625.863 97.6013 625.945 96.5984 626.312 96.4352C626.68 96.2721 626.645 95.4017 626.226 94.46C625.838 93.5855 625.504 92.0424 625.483 91.0048C625.462 89.9673 625.017 87.1849 624.545 84.7367C624.073 82.2886 623.659 79.5734 623.697 78.6704C623.726 76.161 622.901 71.5338 621.213 65.3575C620.412 62.1695 619.818 59.0507 619.843 58.3148C619.941 57.5463 619.527 54.8312 618.818 52.2465C617.307 46.0722 618.469 43.5423 623.978 41.0952C627.43 39.5617 628.034 39.5351 629.425 40.6887C631.913 42.7247 633.007 45.7823 633.955 53.6567C634.481 57.6113 635.793 64.921 636.87 69.9191C637.947 74.9173 638.717 80.2132 638.637 81.6177C638.558 83.0222 638.844 86.4386 639.319 89.2883C639.69 92.1034 639.778 94.4802 639.411 94.6433C639.044 94.8065 638.959 95.4079 639.198 95.946C639.437 96.4841 639.592 97.6236 639.597 98.4267C638.849 108.423 639.001 113.913 640.08 114.561C640.45 114.8 641.671 114.579 642.847 114.057C644.022 113.535 645.346 113.349 645.716 113.588C646.116 113.894 647.851 113.445 649.614 112.662C652.184 111.52 652.96 110.692 654.019 108.128C655.672 103.93 655.738 102.693 654.591 95.9537C654.101 92.8696 653.773 89.9547 653.888 89.4206C654.032 88.9537 653.797 86.6421 653.414 84.3958C653.032 82.1494 652.803 78.466 652.921 76.1584C652.995 73.9508 652.617 69.9309 651.982 67.3136C651.347 64.6963 650.973 61.4797 651.053 60.0752C651.089 58.7705 650.699 55.3195 650.195 52.4025C648.795 45.2925 648.668 43.8187 649.329 43.5251C649.623 43.3946 649.865 42.1593 649.872 40.7874C649.947 36.4046 655.51 33.289 658.4 36.0323C660.371 37.8951 662.794 48.4969 662.277 53.0753C662.223 53.744 662.39 56.8913 662.733 60.0407C663.047 63.1228 663.217 66.6718 663.151 67.9091C662.982 69.1119 663.079 70.5184 663.318 71.0565C663.557 71.5946 663.884 74.5096 664.095 77.5571C664.306 80.6045 664.774 84.8261 665.067 86.8706C665.389 88.9825 665.469 92.3296 665.335 94.4027C665.2 96.4759 665.324 99.7232 665.616 101.768C665.953 103.712 665.938 106.055 665.649 106.988C665.292 107.806 664.698 109.729 664.159 111.476L664.159 111.477L664.001 111.989C662.309 117.089 657.626 121.989 651.971 124.501C649.327 125.675 646.122 126.777 644.724 126.995C643.326 127.213 640.046 127.946 637.443 128.619C634.87 129.359 631.222 130.255 629.384 130.669L626.03 131.434L626.242 137.058C626.379 140.138 626.831 144.125 627.211 145.97C628.095 150.732 630.025 162.599 630.122 164.006C630.068 164.674 630.323 165.447 630.516 165.683C630.635 165.952 630.746 167.192 630.607 168.462C630.541 169.699 630.874 173.417 631.527 176.671C632.108 179.957 632.435 182.872 632.231 183.204C632.027 183.536 632.536 187.256 633.315 191.582C634.166 195.875 634.692 199.829 634.547 200.296C634.359 200.863 635.016 204.518 635.925 208.543C636.907 212.537 637.715 216.929 637.679 218.234C637.673 219.606 638.158 224.062 638.92 228.153C639.608 232.277 640.058 235.862 639.854 236.195C639.723 236.494 639.671 237.565 639.869 238.604C640.509 242.025 641.259 248.859 641.195 250.498L641.191 250.594C641.189 250.647 641.186 250.703 641.183 250.761L641.168 251.082L641.168 251.085C641.122 252.037 641.057 253.379 641.087 254.412Z" fill="#4A667B"/>
<path d="M664.218 410.61C665.07 414.903 664.651 418.713 663.021 421.773C660.968 425.665 658.914 426.98 655.245 426.838C650.589 426.651 649.834 425.94 648.605 420.204C648.087 417.454 647.762 414.941 647.966 414.608C648.17 414.276 647.452 410.085 646.434 405.221C645.343 400.39 644.549 395.831 644.677 395.129C644.732 394.461 644.266 390.641 643.594 386.751C642.921 382.862 642.531 379.411 642.662 379.111C642.953 378.579 641.593 368.391 639.341 354.412C638.652 350.288 638.081 346.032 638.029 344.927C638.001 342.685 637.027 337.721 635.393 330.876C634.788 328.326 634.373 325.611 634.472 324.842C634.57 324.074 633.974 320.554 633.141 316.897C630.386 305.153 632.085 301.258 639.136 302.877C642.78 303.755 645.177 307.764 646.818 315.814C647.472 319.067 648.452 322.659 648.96 323.803C649.468 324.946 649.652 326.153 649.448 326.485C649.17 326.85 649.555 329.498 650.236 332.417C653.335 345.134 653.835 347.248 653.589 348.082C653.475 348.616 654.071 352.136 654.891 355.96C655.71 359.785 656.307 363.305 656.089 363.804C655.944 364.271 656.17 364.976 656.599 365.349C657.059 365.79 657.27 366.662 657.039 367.329C656.807 367.995 657.542 372.421 658.633 377.252C659.724 382.083 660.651 386.744 660.613 387.648C660.574 388.551 661.369 393.111 662.37 397.74C663.371 402.369 664.119 406.627 663.975 407.094C663.86 407.628 663.944 409.202 664.218 410.61Z" fill="#4A667B"/>
<path d="M505.222 156.092C504.257 156.605 499.754 157.624 495.171 158.35C481.664 160.673 479.574 160.741 472.666 159.032C470.497 158.511 469.535 157.773 468.896 156.079C467.938 153.427 468.909 150.411 471 149.827C471.805 149.609 473.092 149.096 473.896 148.73C474.701 148.291 475.987 148.147 476.71 148.369C477.754 148.666 478.479 147.932 479.53 145.505C480.418 143.667 481.386 142.198 481.788 142.198C482.19 142.199 482.513 141.538 482.515 140.802C482.517 139.992 483.808 137.861 485.339 136.024C486.87 134.114 488.161 132.351 488.161 132.056C488.165 130.437 493.323 124.34 496.302 122.36C499.199 120.453 500.406 120.162 504.585 120.172C509.889 120.184 514.869 121.227 516.473 122.629C517.035 123.146 519.041 124.328 520.968 125.216C525.784 127.656 534.764 136.289 539.57 143.146C540.772 144.842 542.617 146.318 544.223 146.764C549.121 148.394 549.593 152.738 544.929 154.052C543.481 154.417 534.399 154.836 524.674 154.96C513.02 155.154 506.429 155.506 505.222 156.092Z" fill="#4A667B"/>
<path d="M332.539 177.908C332.781 177.541 333.988 177.176 335.193 177.179C337.765 177.185 353.685 174.352 355.857 173.548C356.742 173.182 359.073 172.672 361.083 172.456C367.595 171.662 377.565 169.846 379.174 169.187C380.059 168.821 384.079 168.021 388.019 167.368C392.038 166.789 396.702 165.769 398.472 165.185C400.241 164.6 404.584 163.433 408.042 162.632C411.58 161.83 415.119 160.588 415.924 159.927C418.179 158.092 417.783 155.442 415.214 154.479C413.929 154.034 412.323 153.368 411.601 152.998C410.798 152.628 409.593 152.331 408.87 152.329C408.147 152.327 406.14 151.292 404.455 150.037C402.69 148.781 400.362 147.525 399.158 147.227C397.792 146.93 396.83 146.044 396.431 144.865C395.714 142.214 391.869 136.832 390.423 136.313C389.701 136.091 388.256 135.057 387.214 134.171C386.252 133.212 384.646 132.398 383.762 132.396C382.878 132.394 381.914 132.098 381.674 131.655C381.034 130.771 370.264 130.671 369.7 131.553C369.458 131.847 367.527 132.578 365.436 133.089C362.059 133.964 355.538 138.659 355.534 140.278C355.533 140.573 354.405 141.968 353.116 143.364C351.746 144.759 350.456 146.596 350.213 147.405C349.889 148.214 348.76 149.904 347.551 151.226C347.172 151.671 346.728 152.183 346.273 152.707L346.255 152.729L346.252 152.731L346.251 152.732L346.248 152.736C345.358 153.762 344.427 154.836 343.844 155.56C342.958 156.662 340.057 159.673 337.399 162.242C329.827 169.585 326.758 175.686 329.566 177.68C331.251 178.788 331.894 178.864 332.539 177.908Z" fill="#4A667B"/>
<path d="M242.525 178.724C235.934 178.929 225.566 179.42 219.618 179.773C198.237 181.121 195.825 181.189 192.371 180.518C188.676 179.773 185.065 177.336 185.07 175.496C185.072 174.318 190.71 169.179 195.057 166.54C200.449 163.241 201.819 161.845 203.436 157.728C204.325 155.522 205.618 152.728 206.344 151.478C207.07 150.302 207.636 148.905 207.637 148.464C207.642 146.623 217.467 137.962 220.362 137.085C221.971 136.648 223.66 135.989 224.143 135.622C225.915 134.081 232.342 134.979 237.882 137.569C246.231 141.49 248.477 142.967 254.251 148.28C260.666 154.257 261.949 155.733 262.667 157.942C263.545 160.447 265.31 161.776 269.486 163.037C273.743 164.225 277.432 167.178 277.508 169.386C277.504 171.079 275.489 173.503 273.075 174.602C272.19 175.041 268.973 175.769 265.838 176.277C262.783 176.711 258.923 177.438 257.395 177.803C255.868 178.093 249.196 178.593 242.525 178.724Z" fill="#4A667B"/>
<path d="M395.935 184.316C396.579 183.655 397.387 181.964 397.712 180.493C398.2 178.065 397.96 177.549 395.714 175.704C392.586 173.12 390.979 173.116 387.758 175.685C384.456 178.4 384.207 181.638 387.256 183.853C389.743 185.699 394.163 185.857 395.935 184.316Z" fill="#4A667B"/>
<path d="M358.658 178.265C364.042 178.499 366.04 183.361 362.254 187.106C359.676 189.676 355.176 189.444 354.218 186.719C353.898 185.982 353.337 185.318 352.935 185.317C351.569 185.314 352.218 182.887 354.233 180.536C355.764 178.7 356.73 178.187 358.658 178.265Z" fill="#4A667B"/>
<path fill-rule="evenodd" clip-rule="evenodd" d="M535.263 230.503C546.367 224.862 547.9 222.657 547.683 212.426C547.612 208.598 547.218 205.138 546.817 204.696C546.417 204.179 545.458 201.969 544.659 199.759C543.861 197.549 542.34 194.969 541.378 194.084C540.335 193.198 539.454 192.018 539.455 191.429C539.459 189.737 530.476 182.134 526.221 180.21C519.959 177.398 515.699 177.756 506.929 181.783C505.642 182.369 502.904 184.718 500.889 186.995C494.442 194.34 494.119 195.075 494.024 201.11C494.012 206.115 494.331 207.22 497.291 212.895C499.131 216.358 500.891 219.969 501.21 221C502.088 223.652 506.417 228.152 509.066 229.189C510.271 229.633 511.234 230.298 511.233 230.666C511.23 231.77 516.371 232.666 523.604 232.757C530.194 232.846 531.079 232.701 535.263 230.503ZM514.508 205.281C516.744 211.175 520.753 215.379 525.09 216.567C531.274 218.201 533.446 217.323 532.732 213.347C532.097 209.96 524.817 196.031 522.651 194.26C520.085 192.119 516.626 193.289 514.367 196.963L512.511 200.05L514.508 205.281Z" fill="#4A667B"/>
<path fill-rule="evenodd" clip-rule="evenodd" d="M398.122 244.455C397.557 245.557 395.624 247.393 393.772 248.493C391.116 250.106 389.347 250.543 385.087 250.68C379.381 250.887 375.285 249.626 370.23 246.081C368.786 245.047 367.261 244.234 366.94 244.233C366.136 244.231 364.371 242.829 359.64 238.401C356.513 235.45 348.908 222.919 348.913 220.711C348.914 220.269 348.593 219.9 348.111 219.899C346.664 219.896 347.245 212.242 348.941 209.008C349.829 207.391 350.556 205.626 350.557 205.184C350.558 204.816 351.203 203.861 352.009 203.127C352.734 202.466 354.024 200.482 354.832 198.865C356.124 196.218 357.09 195.558 362.641 193.216C370.284 189.996 374.304 189.122 380.734 189.064C390.86 189.088 398.487 192.565 401.687 198.608C402.487 200.303 403.448 201.63 403.77 201.631C404.975 201.634 406.885 209.735 406.873 214.666C406.861 219.745 405.316 227.322 403.621 230.189C403.137 230.997 402.732 232.468 402.729 233.425C402.725 235.339 400.46 241.516 399.655 242.103C399.333 242.323 398.607 243.352 398.122 244.455ZM374.469 220.919C375.67 222.835 377.915 225.196 379.44 226.157C385.618 230.22 388.758 227.872 388.054 219.774C387.741 216.314 387.262 215.135 385.417 213.585C381.407 210.189 375.219 210.027 369.987 213.18L368.056 214.353L370.222 215.904C371.345 216.79 373.349 219.076 374.469 220.919Z" fill="#4A667B"/>
<path fill-rule="evenodd" clip-rule="evenodd" d="M236.965 252.461C238.172 251.875 239.862 250.775 240.668 249.894C241.554 249.013 242.681 248.353 243.163 248.354C243.725 248.356 245.58 245.858 247.275 242.697C250.1 237.698 250.424 236.448 250.679 230.707C251.102 222.097 250.141 220.328 241.879 213.831C233.697 207.408 230.806 206.445 219.153 206.196C209.67 206.1 206.694 206.829 206.689 209.258C206.687 210.067 206.364 210.729 206.042 210.728C204.756 210.725 202.572 216.903 202.078 221.833C201.747 225.659 201.983 227.868 203.339 231.993C204.297 234.866 205.336 237.224 205.657 237.224C205.979 237.225 206.94 238.773 207.739 240.762C210.057 245.773 215.833 250.497 219.851 250.507C220.494 250.508 221.056 250.804 221.055 251.172C221.05 253.086 233.505 254.146 236.965 252.461ZM219.081 236.226C219.963 237.111 221.247 237.998 221.889 238.22C225.583 239.48 231.374 237.801 232.344 235.227C232.829 234.124 233.556 232.654 234.04 231.919C235.734 229.2 229.238 223.443 223.694 222.768C220.963 222.393 220.48 222.613 219.109 224.449C217.013 227.462 216.996 234.234 219.081 236.226Z" fill="#4A667B"/>
<path d="M373.447 515.035C378.764 509.454 379.582 503.715 380.476 465.811C381.285 429.674 382.447 414.294 384.623 411.723C385.026 411.356 385.673 409.812 386.078 408.414C386.806 406.208 386.886 406.65 386.953 412.244C387.016 419.31 388.987 435.213 390.107 437.497C390.507 438.308 391.54 443.389 392.491 448.838C393.362 454.213 394.476 459 394.877 459.516C395.277 459.958 396.155 462.831 396.871 465.85C397.667 468.87 398.705 472.037 399.345 472.922C399.906 473.807 401.185 476.828 402.142 479.774C403.1 482.647 404.219 485.005 404.54 485.006C404.862 485.006 405.901 487.585 406.857 490.752C407.734 493.919 409.251 497.897 410.132 499.592C411.012 501.214 411.731 503.056 411.729 503.644C411.724 505.779 416.847 514.476 418.133 514.479C418.454 514.48 419.578 515.292 420.62 516.325C422.143 517.801 423.348 518.172 426.643 518.18C430.018 518.188 431.064 517.896 432.756 516.207C433.964 515.032 435.174 513.269 435.418 512.092C435.742 510.988 436.307 509.886 436.709 509.666C437.675 509.153 437.629 494.874 436.666 494.283C436.264 494.061 435.866 492.441 435.87 490.748C435.879 487.141 433.022 472.119 431.982 469.982C431.582 469.172 430.466 465.342 429.511 461.512C428.555 457.682 427.438 454.22 427.118 453.778C426.156 452.745 422.339 435.66 421.391 428.739C420.445 421.009 419.09 416.368 415.335 406.938C413.577 402.665 411.983 397.215 411.667 394.785C411.036 389.852 409.682 384.77 408.88 384.179C408.639 383.958 407.518 382.263 406.397 380.346C405.357 378.356 404.236 376.808 403.995 376.807C403.673 376.807 402.791 376.216 401.909 375.404C401.026 374.666 399.421 373.632 398.297 373.114C395.97 371.931 379.335 371.228 370.814 371.871C365.268 372.373 364.463 372.665 359.714 375.966C349.973 382.641 343.689 389.25 343.68 392.783C343.679 393.224 343.357 393.592 342.955 393.591C341.509 393.587 339.636 403.814 339.617 411.763C339.597 420.006 341.485 437.16 342.762 441.064C343.161 442.317 344.273 447.619 345.225 452.847C346.177 458.148 347.21 462.788 347.531 463.157C347.932 463.599 348.96 470.668 349.904 478.987C350.769 487.306 351.875 495.111 352.274 496.363C352.753 497.615 353.07 499.751 353.066 501.149C353.055 505.713 355.371 512.122 358.096 515.146C360.581 517.875 360.822 518.023 365.564 518.034C370.386 518.046 370.627 517.973 373.447 515.035Z" fill="#4A667B"/>
<path d="M206.507 521.482C206.264 522.218 204.654 523.244 203.045 523.903C199.828 525.073 197.738 525.141 192.516 524.246C187.134 523.203 184.646 521.651 182.486 517.671C179.764 512.954 178.9 504.929 177.924 475.927C177.55 464.076 176.852 453.549 176.372 452.444C175.254 449.718 174.665 427.047 175.563 421.161C175.971 418.512 177.189 413.436 178.242 409.759C178.389 409.256 178.522 408.792 178.645 408.364C179.355 405.884 179.73 404.578 180.568 403.611C181.5 402.536 183.006 401.879 186.185 400.491L186.188 400.489L186.207 400.481C186.751 400.243 187.344 399.984 187.991 399.698C191.289 398.234 209.856 397.469 222.312 398.234C233.722 398.998 235.168 399.222 239.744 401.367C242.554 402.625 246.727 405.359 249.132 407.499L249.472 407.801C250.899 409.068 252.025 410.069 252.95 411.208C256.425 415.488 257.045 421.711 259.994 451.323L259.995 451.326L260.273 454.116C260.429 456.177 261.063 459.933 261.538 462.584C262.175 465.456 262.551 476.129 262.6 489.451L262.627 511.532L260.045 515.942C256.817 521.602 254.321 523.657 250.301 524.163C246.362 524.669 239.937 522.592 239.299 520.604C238.979 519.793 238.499 519.203 238.097 519.202C237.052 519.2 231.932 509.545 230.496 504.758C229.779 502.327 228.901 499.749 228.501 498.939C227.621 497.317 224.447 479.939 222.153 464.624C221.363 459.102 220.332 453.432 219.852 452.106C219.135 449.749 219.135 449.749 219.05 451.589C218.967 452.693 218.643 453.796 218.16 454.016C217.758 454.236 217.351 456.222 217.346 458.283C217.261 460.417 216.355 469.763 215.207 479.034L214.529 484.555C213.585 492.228 212.669 499.674 212.338 502.58C211.024 514.648 210.293 517.811 208.602 519.058C207.716 519.719 206.749 520.82 206.507 521.482Z" fill="#4A667B"/>
<path d="M567.237 538.977C566.995 539.712 564.821 541.179 562.488 542.204C559.028 543.815 556.858 544.178 549.865 544.456C541.184 544.876 531.221 543.896 530.741 542.717C530.582 542.275 530.02 541.979 529.377 541.978C528.814 541.976 526.726 541.309 524.8 540.495C521.267 539.088 518.863 535.991 517.348 531.203C516.231 527.52 521.63 521.718 528.225 519.6C531.683 518.504 533.13 518.36 538.433 519.035C541.888 519.485 548.236 519.647 552.496 519.437C558.846 519.084 561.016 519.236 563.987 520.274C565.994 521.014 567.6 521.828 567.599 522.122C567.598 522.49 568.319 523.523 569.281 524.482C570.644 525.957 570.883 526.988 570.633 530.741C570.465 533.611 569.817 535.671 569.012 536.478C568.287 537.139 567.48 538.241 567.237 538.977Z" fill="#4A667B"/>
<path d="M447.317 543.696C451.819 542.971 453.187 542.459 455.121 540.476C457.135 538.42 457.458 537.537 457.467 533.784C457.476 530.251 457.077 528.998 455.154 526.565C453.872 524.943 451.466 522.876 449.861 521.915C447.212 520.363 446.248 520.287 440.219 520.641C436.522 520.853 432.422 521.506 431.215 522.092C430.008 522.678 427.595 523.334 425.907 523.625C424.218 523.915 422.207 524.72 421.482 525.381C420.677 526.041 419.147 527.215 417.94 527.875C415.204 529.487 414.473 532.798 415.829 537.07C416.546 539.427 417.428 540.607 418.873 541.125C419.917 541.496 421.04 542.161 421.281 542.53C422.562 544.373 438.473 545.147 447.317 543.696Z" fill="#4A667B"/>
<path d="M361.636 547.172C360.348 548.125 357.292 549.075 354.317 549.583C345.795 550.888 329.803 550.187 325.95 548.264C318.485 544.566 316.99 531.093 323.827 528.534C327.769 526.997 337.255 525.769 345.775 525.568C349.954 525.504 355.259 525.149 357.43 524.713C359.682 524.35 363.379 523.991 365.71 523.996C369.488 523.932 370.21 524.228 372.616 526.368C378.871 532.198 376.44 540.656 367.43 544.168C365.419 544.973 362.844 546.291 361.636 547.172Z" fill="#4A667B"/>
<path d="M193.895 555.47C195.906 554.665 198.48 553.935 199.766 553.938C200.971 553.941 202.74 553.577 203.786 553.065L206.683 551.747C207.326 551.527 208.132 550.793 208.374 550.205L209.827 547.559C210.392 546.603 210.798 544.911 210.801 543.734C210.806 541.526 207.205 534.819 205.919 534.816C205.518 534.815 203.591 533.707 201.586 532.303C199.179 530.605 196.69 529.568 194.199 529.194C192.03 528.968 189.781 528.448 189.058 528.078C188.336 527.708 186.728 527.778 185.441 528.143C184.155 528.508 180.616 529.383 177.48 530.111C172.415 531.203 171.368 531.79 167.341 535.607C164.119 538.618 162.668 540.601 162.342 542.441C161.853 545.236 162.969 549.14 164.733 550.764C165.294 551.28 165.775 552.017 165.774 552.385C165.771 553.489 170.187 555.34 175.649 556.457C181.995 557.797 189.31 557.446 193.895 555.47Z" fill="#4A667B"/>
<path d="M265.654 556.732C272.89 555.572 280.295 550.805 282.235 546.173C284.175 541.54 282.501 535.501 279.287 535.493C278.724 535.492 278.243 535.196 278.244 534.828C278.246 533.871 269.65 532.305 267.077 532.814C265.952 533.033 261.369 533.831 256.947 534.557C247.942 536.081 246.092 536.812 242.146 540.189C240.132 542.024 239.405 543.421 239.078 545.849C238.587 549.454 240.425 553.801 242.435 553.806C242.997 553.807 244.041 554.252 244.602 554.842C245.725 555.801 253.035 557.217 258.178 557.45C259.705 557.454 263.081 557.168 265.654 556.732Z" fill="#4A667B"/>
<path d="M492.004 542.625C492.005 542.257 492.649 541.89 493.453 541.892C495.864 541.898 499.728 539.257 500.778 536.831C502.556 533.008 501.358 529.84 497.265 527.254C493.814 525.111 485.783 522.737 481.925 522.728C479.514 522.722 473.562 524.842 473.56 525.799C473.559 526.167 472.672 527.269 471.545 528.223C468.726 530.572 467.994 534.545 470.159 536.537C471.041 537.349 471.922 538.455 472.082 538.971C472.72 540.812 480.832 543.187 486.618 543.274C489.672 543.355 492.003 543.066 492.004 542.625Z" fill="#4A667B"/>
<path d="M487.014 512.067C486.368 513.317 484.757 514.933 483.469 515.813C477.19 519.993 469.803 517.252 467.891 509.961C467.414 507.825 466.695 505.983 466.374 505.762C465.09 505.023 463.115 491.034 462.659 479.992C462.357 471.674 462.615 464.756 463.684 454.38C464.918 442.312 465.007 438.853 464.223 430.829C462.734 414.853 463.408 401.68 466.152 396.829C470.834 388.375 476.552 383.237 483.388 381.339C485.318 380.829 490.462 380.62 496.891 380.783L496.98 380.785C507.098 381.102 507.35 381.109 511.431 383.614C513.758 385.018 515.844 386.716 516.163 387.527C516.402 388.263 517.284 389.222 518.087 389.592C520.014 390.553 527.374 404.408 529.368 410.817C530.804 415.457 533.441 421.646 537.84 430.636C538.88 432.7 539.679 434.762 539.678 435.13C539.677 435.498 540.556 437.635 541.595 439.772C542.715 441.983 543.991 446.108 544.547 448.906C545.023 451.777 545.9 454.503 546.381 455.093C547.744 456.642 547.492 494.547 546.204 495.721C545.64 496.235 545.155 497.412 545.153 498.221C545.138 504.404 536.595 514.762 531.532 514.75C527.754 514.741 526.069 513.633 525.032 510.539C524.553 508.992 523.834 507.077 523.435 506.266C523.035 505.455 522.239 501.921 521.605 498.46C520.97 494.999 519.534 490.358 518.415 488.148C517.375 485.937 516.016 482.842 515.458 481.222C514.899 479.601 514.179 477.98 513.859 477.538C513.458 477.169 512.42 474.296 511.463 471.276C510.586 468.256 509.468 465.236 509.148 464.572C508.748 463.983 507.71 460.889 506.753 457.722C505.796 454.628 504.599 451.313 503.958 450.428C503.398 449.544 502.281 446.082 501.485 442.694C500.689 439.306 499.812 436.434 499.491 436.286C499.01 435.99 495.307 471.973 494.8 482.277C494.633 485.294 494.143 488.458 493.739 489.266C493.416 490.075 492.846 492.944 492.599 495.594C492.023 500.965 489.995 508.836 488.949 509.496C488.547 509.716 487.74 510.892 487.014 512.067Z" fill="#4A667B"/>
<path d="M247.637 192.058C251.171 193.097 250.111 199.425 246.249 201.108C244.157 201.987 242.067 202.129 239.497 201.46C236.606 200.717 235.658 193.944 238.156 191.153C239.203 190.051 246.115 189.847 246.113 190.877C246.112 191.245 246.834 191.762 247.637 192.058Z" fill="#4A667B"/>
<path d="M220.217 198.249C222.39 197.003 222.793 196.415 222.799 193.913C222.813 187.877 215.027 184.032 210.998 188.144C208.179 190.934 208.174 192.848 210.9 195.725C212.183 197.053 214.028 198.235 214.832 198.237C215.636 198.238 216.358 198.608 216.357 198.976C216.355 200.08 217.239 199.862 220.217 198.249Z" fill="#4A667B"/>
<path d="M510.576 168.912C510.57 171.488 510.085 172.885 508.957 173.913C506.541 176.115 502.523 175.811 499.877 173.302C498.113 171.679 497.714 170.5 497.72 167.777C497.727 164.759 497.97 164.171 499.74 163.439C500.866 163 501.752 162.34 501.752 161.972C501.756 160.647 505.933 161.54 508.179 163.386C510.264 165.01 510.584 165.894 510.576 168.912Z" fill="#4A667B"/>
<path d="M532.029 171.171C533.558 170.291 534.773 166.54 534.296 164.257C533.261 160.207 526.755 158.425 523.453 161.435C521.842 162.903 521.188 167.538 522.47 169.234C523.992 171.372 529.695 172.49 532.029 171.171Z" fill="#4A667B"/>
<path d="M235.519 386.784C235.117 387.151 231.257 387.878 227.076 388.53C213.972 390.413 199.267 389.347 191.399 385.943C186.582 383.87 182.573 379.812 181.537 376.056C179.864 370.09 179.409 358.754 179.634 331.743V312.899C176.5 315.99 174.652 316.585 171.782 317.509L171.781 317.51C171.402 317.632 171.006 317.759 170.586 317.899C166.086 319.399 138.085 321.399 130.085 317.899C122.085 314.399 110.586 305.399 111.586 295.899C112.586 286.399 126.086 284.899 141.586 284.399C153.986 283.999 162.457 277.891 165.142 274.886C165.95 273.122 166.918 271.726 167.24 271.726C167.561 271.727 168.125 270.992 168.449 270.11C168.935 268.492 175.708 259.16 176.835 258.501C177.157 258.281 177.802 257.472 178.286 256.664C178.69 255.855 181.829 253.876 185.208 252.338C192.047 249.116 197.915 248.541 202.17 250.612C208.592 253.719 212.605 255.863 213.006 256.305C213.807 257.411 220.473 259.414 225.615 260.089C235.256 261.363 244.106 257.263 252.568 247.641C257.725 241.838 259.416 240.518 262.31 240.009C264.964 239.5 269.139 240.982 270.983 242.974C273.468 245.556 282.109 261.843 283.465 266.41C284.182 268.914 285.3 271.934 285.94 273.113C287.3 275.546 288.232 289.312 287.338 293.578C286.931 295.565 285.803 296.887 282.905 298.867C280.007 300.921 278.234 302.978 276.054 306.947C274.44 309.814 273.148 312.608 273.147 313.049C273.145 313.565 272.418 315.182 271.531 316.652C270.643 318.196 269.916 319.813 269.915 320.255C269.914 320.697 268.699 324.521 267.162 328.713C265.705 332.905 264.003 338.862 263.434 341.879C262.864 344.895 261.973 347.837 261.57 348.351C261.167 348.866 260.591 354.164 260.417 360.125C260.161 366.086 259.665 372.121 259.179 373.518C258.369 376.019 254.181 380.057 252.412 380.126C252.011 380.125 250.482 380.858 249.033 381.811C247.664 382.765 244.205 384.155 241.471 384.884C238.656 385.614 236.002 386.491 235.519 386.784Z" fill="#4A667B"/>
<path d="M369.056 367.818C370.825 367.381 380.631 366.889 390.839 366.619C402.814 366.279 409.807 365.854 410.532 365.341C411.176 364.827 413.589 363.95 415.841 363.366C425.25 360.813 427.912 356.844 426.569 346.978C425.7 340.499 424.429 334.534 423.389 332.324C421.79 328.934 420.211 316.933 420.232 308.395C420.244 303.317 420.67 292.939 421.251 285.36L422.248 271.451L423.689 274.178C424.569 275.652 425.766 279.409 426.401 282.501C427.037 285.594 427.833 288.835 428.313 289.646C428.713 290.456 429.91 294.139 431.026 297.748C433.577 306.513 435.255 310.565 437.419 313.22C438.38 314.474 439.822 316.465 440.462 317.644C442.503 322.766 448.805 332.096 457.684 328.441C466.562 324.786 464.375 317.105 462.171 313.721C460.329 311.14 458.807 308.782 458.808 308.414C458.809 308.046 457.93 306.056 456.89 303.919C455.85 301.782 454.332 298.025 453.615 295.594C452.897 293.164 451.94 290.364 451.54 289.333C451.141 288.302 450.187 283.883 449.314 279.391C447.806 271.144 444.222 257.74 442.942 255.087C442.602 254.513 442.022 253.273 441.399 251.945L441.398 251.942L441.398 251.941L441.395 251.935L441.393 251.93C441.138 251.387 440.877 250.83 440.623 250.297C437.025 242.413 428.037 237.019 418.473 236.996C413.008 236.983 412.686 237.203 399.878 249.538L399.598 249.805C394.379 254.78 392.366 256.7 389.932 257.403C388.404 257.845 386.709 257.806 383.95 257.743L383.945 257.743C380.49 257.661 377.276 257.286 376.714 256.916C376.153 256.547 373.663 255.658 371.093 254.916C368.604 254.174 365.553 252.842 364.43 251.882C363.307 250.922 362.103 250.11 361.702 250.109C360.255 250.106 356.247 245.827 352.242 240.076C349.999 236.906 347.356 233.367 346.394 232.26C344.23 229.679 340.294 228.934 336.674 230.397C329.273 233.471 326.537 234.716 323.962 236.108C320.26 238.086 313.817 243.812 311.64 247.045C310.752 248.442 309.463 249.984 308.98 250.351C308.416 250.792 307.366 252.924 306.557 255.13C305.748 257.336 304.94 259.321 304.618 259.541C304.376 259.762 303.323 263.218 302.269 267.264C301.214 271.31 300.08 274.987 299.758 275.354C299.249 279.348 297.002 289.642 292.086 298.867C285.94 310.399 276.794 329.399 285.94 339.399C295.086 349.399 312.086 339.242 314.086 333.071C314.762 330.983 315.763 328.706 316.902 326.114C319.131 321.041 321.892 314.76 323.795 306.325C324.118 305.516 325.092 301.544 325.825 297.498C326.638 293.451 327.612 289.479 328.096 288.671C329.145 286.98 329.225 287.275 331.444 300.087C332.078 303.916 333.033 307.893 333.513 308.924C334.712 311.43 335.958 328.214 335.304 333.071C334.977 335.204 335.205 340.799 335.756 345.584C336.544 352.431 337.261 355.083 339.021 358.473C340.301 360.757 341.663 362.674 341.984 362.675C342.386 362.676 343.429 363.341 344.472 364.227C348.803 367.917 360.934 369.712 369.056 367.818Z" fill="#4A667B"/>
<path d="M520.135 373.11C517.965 373.325 515.713 373.909 515.15 374.276C513.942 375.156 494.492 375.551 485.573 374.794C477.699 374.186 473.923 373.441 469.909 371.518C468.464 370.852 466.617 370.332 465.894 370.331C464.447 370.327 462.689 366.128 462.697 362.742C461.209 358.653 460.568 348.659 469.909 341.399C481.586 332.324 482.586 323.209 481.586 315.899C481.086 312.245 478.224 308.159 475.271 303.945C472.317 299.729 469.273 295.384 468.413 291.213C467.541 286.353 466.507 281.714 466.107 280.903C465.707 280.093 464.67 276.925 463.713 273.905C462.755 270.885 461.638 267.718 461.238 266.907C459.958 264.181 458.221 251.517 457.684 240.769C456.996 225.679 457.969 222.075 464.332 216.202C467.796 212.971 469.807 212.093 473.343 212.101C477.201 212.111 480.732 214.18 483.215 217.94C483.936 218.972 486.02 221.332 487.864 223.103C489.628 224.874 491.151 226.57 491.15 226.865C491.148 227.821 502.856 238.375 507.51 241.624C510.077 243.47 514.411 246.057 517.14 247.388C521.154 249.385 522.68 249.757 525.654 249.469C531.201 248.967 537.236 245.743 540.863 241.336C544.49 236.928 549.157 234.51 555.186 233.936C559.045 233.504 559.125 233.577 562.091 236.676C566.239 241.058 566.266 241.106 568.935 245.965L569.301 246.629C575.374 263.875 592.351 271.421 601.437 275.46C603.137 276.215 604.561 276.848 605.585 277.399C608.443 278.935 613.716 277.092 619.238 275.163C626.278 272.704 633.723 270.103 637.085 274.178C643.085 281.449 629.585 299.152 603.085 303.919C581.885 307.733 562.365 295.342 555.255 288.671L556.799 299.152C555.754 299.15 555.266 301.504 555.255 306.067C555.245 310.41 554.335 321.301 552.854 335.945C552.196 342.126 548.792 354.115 547.343 354.995C546.941 355.215 545.973 356.758 545.165 358.449C544.115 360.654 541.94 362.637 536.708 366.231C529.463 371.218 526.888 372.243 520.135 373.11Z" fill="#4A667B"/>
<path d="M29.7416 380.712C31.8084 378.511 32.427 376.771 31.801 374.707C31.5788 373.965 31.3788 370.262 31.4491 366.478C31.4232 362.745 31.2454 359.276 30.9676 358.748C30.749 358.311 30.7194 354.272 30.8787 349.827C31.1157 345.402 31.1416 341.15 30.8786 340.245C30.1897 337.784 31.1008 326.613 32.8009 318.158C33.6009 313.803 34.2417 309.102 34.1862 307.719C33.8602 303.223 47.0201 269.532 49.8277 267.676C50.3277 267.35 51.813 265.15 53.0834 262.819C54.3539 260.487 56.2799 257.87 57.2948 256.841C58.3689 255.904 60.2801 253.663 61.5765 251.87C62.9321 250.169 64.2507 248.611 64.6174 248.478C64.9841 248.345 67.8768 245.523 71.1326 242.263C74.4068 238.931 78.2219 235.436 79.5479 234.488C80.8924 233.469 82.0813 232.409 82.1739 232.053C82.2665 231.697 83.4777 230.871 84.7296 230.207C86.0593 229.564 87.1927 228.718 87.3224 228.22C87.4335 227.792 88.7595 226.844 90.2633 226.17L92.9819 224.976L92.4523 232.443C92.193 236.635 92.1227 240.419 92.2634 240.836C92.4634 241.344 92.8857 244.192 93.1931 247.161C93.4043 250.182 93.8265 253.03 94.1228 253.487C94.3229 253.995 94.7229 256.609 95.0674 259.436C95.334 262.243 95.7711 264.715 96.0267 265.009C96.2822 265.304 96.7193 267.775 96.986 270.582C97.2527 273.389 97.7824 277.101 98.2306 278.891C98.601 280.66 98.7973 284.058 98.6528 286.53C98.3824 291.403 99.4121 293.191 102.972 294.193C106.55 295.123 109.268 293.928 109.991 291.15C110.787 288.087 111.168 281.19 110.639 279.075C110.453 278.19 110.25 274.182 110.124 270.195C109.857 253.015 109.616 247.553 109.346 246.037C109.083 245.132 108.827 241.644 108.709 238.267C108.59 234.89 108.283 231.92 108.027 231.625C107.772 231.331 107.583 230.141 107.587 228.849C107.542 226.784 106.353 219.859 104.301 210.503C103.931 208.734 103.734 205.337 103.86 202.936C104.068 197.666 102.453 195.573 97.7155 194.95C92.7448 194.266 83.8999 198.583 80.4108 203.38C79.4589 204.805 77.981 206.018 77.1106 206.172C75.6216 206.47 75.1809 206.887 68.8435 213.377C66.9286 215.313 64.7803 217.188 64.0469 217.454C63.3913 217.739 61.8394 219.237 60.6764 220.836C59.4355 222.415 58.1725 223.76 57.8058 223.892C57.4391 224.025 56.1576 225.441 54.8797 227.162C53.6204 228.812 52.0129 230.524 51.1647 230.912C50.3943 231.32 48.5053 233.795 46.9274 236.35C45.3496 238.906 43.4791 241.31 42.805 241.667C42.1309 242.024 40.2271 244.875 38.5974 247.95C37.0639 250.973 35.3898 253.58 34.9453 253.693C34.5008 253.805 32.6452 257.429 30.8562 261.755C28.9894 266.061 26.0115 273.044 24.2781 277.157C19.6223 288.038 14.6295 309.479 13.6998 322.318C13.3776 327.71 13.185 332.603 13.2702 333.233C13.3554 333.864 13.3072 334.688 13.1368 335.024C12.9479 335.431 12.9405 336.418 13.2035 337.323C13.3702 338.279 13.6888 342.164 13.7925 345.917C14.2259 357.665 15.8186 365.913 19.5818 375.713C21.4226 380.45 21.8745 380.948 25.5118 381.97C27.5156 382.567 28.249 382.301 29.7416 380.712Z" fill="#4A667B"/>
<path d="M114.232 495.23C116.117 494.047 118.11 484.146 116.773 482.581C116.595 482.307 116.006 480.101 115.473 477.681C114.939 475.26 114.351 473.054 114.173 472.78C113.917 472.485 113.702 469.159 113.676 465.426C113.591 461.601 113.487 457.848 113.302 456.963C113.11 455.468 113.276 453.23 114.728 438.702C115.132 435.232 115.21 432.058 115.01 431.55C114.791 431.113 115.039 426.006 115.532 420.278C115.947 414.53 116.269 409.139 116.084 408.254C115.899 407.369 115.884 402.954 115.924 398.326C116.106 387.726 115.124 372.337 113.965 366.256C113.92 365.921 113.858 365.56 113.806 365.261C113.761 364.997 113.724 364.779 113.713 364.669C113.691 364.435 113.624 363.734 113.461 363.083C113.376 362.452 113.161 359.126 113.043 355.749C112.846 352.352 112.539 349.382 112.361 349.108C112.183 348.834 111.872 347.156 111.735 345.447C111.461 342.03 109.509 337.72 108.109 337.356C107.72 337.255 105.772 338.041 103.846 339.061C100.553 340.867 100.268 341.325 99.1937 345.457C98.5641 347.879 98.3196 350.097 98.653 350.411C98.9086 350.706 98.9901 352.628 98.8012 354.633C98.6123 356.637 98.6382 360.37 98.9012 362.872C99.1642 365.374 99.4457 370.999 99.3827 375.393C99.4161 379.737 99.6198 383.744 99.8198 384.253C100.116 384.71 100.109 387.294 99.9865 390C99.8643 392.706 99.8013 397.1 99.9124 399.867C100.024 402.634 100.064 407.587 99.9495 410.904C99.9125 414.24 99.9347 417.668 100.12 418.553C100.305 419.438 100.431 423.425 100.401 427.372C100.372 431.319 100.494 435.001 100.79 435.458C100.99 435.967 101.224 439.221 101.209 442.792C101.29 446.311 101.561 449.424 101.798 449.789C102.309 450.379 102.661 453.816 102.787 459.401C102.85 461.394 103.161 463.072 103.472 463.153C103.783 463.234 104.094 464.912 104.139 466.977C104.28 472.185 104.557 475.907 104.976 476.853C105.176 477.361 105.502 480.26 105.676 483.423C106.12 491.296 107.421 494.6 110.532 495.408C111.854 495.752 113.539 495.658 114.232 495.23Z" fill="#4A667B"/>
</svg>
