<svg fill="none" xmlns="http://www.w3.org/2000/svg" viewBox="0 0 1629 553"><path d="M523.845 90.969c-7.762.797-14.228 4.663-21.12 8.115-10.945 5.483-21.812 11.105-32.383 17.292-4.31 2.522-13.545 6.126-15.001 11.415-1.652 5.996 9.79 15.502 12.324 21.012 5.521 12.007 4.085 25.216 4.085 38.087v177.735c0 7.182-1.161 15.537.426 22.569 2.582 11.433 16.835 21.84 24.917 29.568 3.274 3.128 6.933 6.92 11.264 8.545 10.06 3.771 26.234-11.083 33.79-16.594 3.092-2.256 9.138-5.796 8.561-10.361-.555-4.379-5.576-8.094-8.321-11.158-6.811-7.599-16.591-16.213-18.241-26.801-1.482-9.51-.301-20.008-.301-29.623V90.969zM664.642 90.969c-7.762.797-14.228 4.663-21.12 8.115-10.946 5.483-21.812 11.105-32.384 17.292-4.309 2.522-13.544 6.126-15 11.415-1.652 5.996 9.79 15.502 12.324 21.012 5.521 12.007 4.084 25.216 4.084 38.087v177.735c0 7.182-1.16 15.537.427 22.569 2.582 11.433 16.835 21.84 24.917 29.568 3.274 3.128 75.879 70.71 80.21 72.335 10.06 3.771 26.233-11.083 33.79-16.594 3.092-2.256 9.138-5.796 8.561-10.361-.555-4.378-74.522-71.884-77.267-74.948-6.811-7.599-16.591-16.213-18.241-26.801-1.482-9.51-.301-20.008-.301-29.623V90.969z" fill="#FF6060"/><path fill-rule="evenodd" clip-rule="evenodd" d="M59.206 92.512c25.81 2.089 48.223 31.622 54.911 54.882 9.866-7.109 17.476-17.889 24.808-28.275 2.729-3.865 5.419-7.675 8.173-11.222.895-1.153 1.834-2.523 2.825-3.97 3.027-4.42 6.541-9.55 10.784-11.355 4.903-2.085 11.676 2.411 16.916 5.89 1.515 1.005 2.901 1.926 4.077 2.578 14.111 7.823 31.607 15.464 47.872 16.605 14.911 1.046 24.217-5.659 34.087-12.77 5.478-3.946 11.129-8.018 18.008-10.959 4.447-1.9 9.617-1.751 14.539-1.609 1.277.037 2.538.073 3.765.073-.233 9.985-4.33 19.841-8.237 29.24-.844 2.031-1.68 4.041-2.465 6.025-3.614 9.133-7.083 18.324-10.552 27.514-3.111 8.24-6.221 16.48-9.436 24.678-2.186 5.575 38.68 50.603 36.492 56.18-20.628 52.566-42.564 127.629-62.121 180.569-4.361 11.803-50.827-38.321-55.499-26.619a2962.595 2962.595 0 00-6.738 16.976s-1.074 3.064-1.65 4.886c-1.729 5.462-3.829 12.097-7.497 14.823-3.451 2.565-10.058 2.085-15.432 1.695-1.749-.127-3.367-.245-4.703-.245-4.212-15.457-10.023-30.67-15.794-45.778-2.258-5.912-4.511-11.809-6.659-17.698-6.701-18.371-13.152-36.841-19.603-55.31-4.403-12.608-8.807-25.215-13.29-37.79-4.805-13.482-9.898-26.85-14.99-40.217-3.487-9.152-6.974-18.303-10.368-27.491-1.265-3.423-2.5-6.972-3.754-10.571-4.123-11.841-8.44-24.236-14.613-34.547-6.442-10.76-22.914-14.73-34.688-12.166-1.238.269-2.967 1.121-4.87 2.059-5.064 2.494-11.366 5.598-12.98-.004-1.67-5.792 1.025-13.952 2.846-19.468l.022-.065c8.065-24.428 30.674-38.578 55.814-36.544zm126.896 220.429c-1.937 5.257-3.919 10.638-7.218 15.009-13.801-42.491-28.627-85.098-44.245-126.954-.769-2.06-1.799-4.427-2.91-6.981-5.514-12.667-13.036-29.946-.655-37.406 13.512-8.141 28.303-1.015 42.242 5.701 5.81 2.8 11.472 5.528 16.832 7.049 9.97 2.831 20.626 4.484 30.976 3.002 3.86-.553 7.614-1.589 11.367-2.625 3.688-1.018 7.375-2.036 11.161-2.594-8.568 25.371-18.902 50.376-29.196 75.283-4.403 10.652-8.798 21.285-13.044 31.922l-13.517 33.855a191.38 191.38 0 00-1.793 4.739z" fill="#FF6060"/><path d="M496.301 494.792c-10.952-6.472-93.483-108.923-100.26-120.307-5.212-8.756-3.137-21.231-3.137-31.012v-93.099c0-5.231.657-10.893-2.257-15.517-6.806-10.799-19.117-19.98-28.718-28.211-3.363-2.882-7.748-7.705-12.672-6.826-7.393 1.32-15.951 11.668-21.12 16.72-4.284 4.187-13.122 10.493-13.995 16.852-.724 5.275 6.446 8.9 9.771 11.763 7.526 6.478 17.107 14.45 18.156 24.967 2.939 29.476.148 60.644.148 90.278 0 10.779-2.893 26.51.849 36.676 2.271 6.167 8.504 10.332 13.231 14.508 6.057 5.35 86.313 106.216 94.506 108.235 5.227 1.289 5.866 2.289 10.299 0 12.255-6.334 27.026-13.651 35.199-25.027zM1446.33 437.635c-10.96-6.472-25.29-12.618-32.06-24.002-5.21-8.755-3.14-21.231-3.14-31.012v-93.099c0-5.23.66-10.893-2.25-15.516-6.82-10.8-19.12-19.98-28.73-28.211-3.36-2.882-70.13-57.233-75.05-56.354-7.4 1.32-15.96 11.668-21.12 16.72-4.28 4.187-4.82 5.016-5.69 11.374-.72 5.276 60.53 63.906 63.85 66.768 7.52 6.479 17.1 14.45 18.16 24.967 2.93 29.476.14 60.645.14 90.278 0 10.779-2.88 26.51.85 36.676 2.28 6.167 8.5 10.333 13.23 14.508 6.06 5.35 12.93 14.938 21.12 16.957 5.22 1.289 11.05-2.738 15.49-5.028 12.25-6.333 27.03-13.65 35.2-25.026zM1495.84 340.524c-12.71 5.296-25.99 10.839-38.01 17.547-4.09 2.275-9.95 4.906-11.82 9.515-5.7 14.023 13.59 30.969 23.08 37.769 30.45 21.821 69.6 31.97 105.6 18.825 46.93-17.138 65.02-73.423 47.59-117.51-3.61-9.09-9.42-26.192-18.29-31.331-6.76-3.924-21.38 5.3-27.89 7.915-10.73 4.298-21.42 8.502-32.39 12.13-5.26 1.743-11.23 4.288-16.89 3.354-8.85-1.46-16.2-9.15-21.22-16.048-3.14-4.297-5.8-9.077-7.58-14.106-8.08-22.941 13.04-48.171 37.24-42.998 23.81 5.088 33.8 26.514 33.8 48.64 18.1-7.037 34.27-17.951 52.09-25.391-3.93-20.405-25.47-36.263-43.65-43.44-44.31-17.499-111.3-2.902-124.63 49.083-5.21 20.283.28 41.856 8.38 60.655 2.93 6.802 7.92 17.95 16.29 19.041 6.88.897 16.08-4.211 22.52-6.344 25.52-8.438 56.38-21.483 73.97 7.052 3.45 5.586 5.88 11.871 7.05 18.337 7.88 43.87-45.32 66.726-75.13 36.431-14.67-14.916-11.59-30.598-10.11-49.126z" fill="#FF6060"/><path fill-rule="evenodd" clip-rule="evenodd" d="M1061.06 245.845c2.95 2.192 5.9 4.387 8.9 6.48 3.98-11.883 11.23-30.824 23.94-35.627 7.04-2.664 13.34 1.126 18.17 6.067 8.08 8.266 16.42 21.903 16.84 33.792.49 13.834-9.85 22.953-20.93 29.187-1.13.63-2.4 1.255-3.73 1.909-4.45 2.186-9.53 4.685-11.67 8.697-1.76 3.317-.84 8.058-.06 12.104.22 1.105.42 2.158.56 3.116 1.15 8.07 1.7 17.308.36 25.391-1.28 7.657-5.5 14.238-9.68 20.76-4.13 6.446-8.22 12.834-9.4 20.147-1.25 7.74 3.61 17.649 7.91 26.411 1.82 3.711 3.54 7.217 4.65 10.265 10.16 27.862 18.84 62.922 2.62 90.278-24.74 41.727-81.98 57.506-126.587 42.782-14.32-4.727-26.529-12.364-35.863-24.444l-.457-.591c-2.834-3.654-6.963-8.979-7.303-13.515-.306-4.069 3-7.317 5.806-10.075.421-.414.832-.817 1.217-1.21l1.045-1.071c7.12-7.302 19.168-19.659 29.775-19.103 4.502.235 7.078 5.616 9.257 10.168.796 1.662 1.539 3.214 2.303 4.364 6.047 9.099 14.98 16.566 25.196 20.498 24.051 9.257 54.891-2.292 57.001-30.373 1.15-15.353-5.83-31.265-14.08-43.728-.45-.675-.9-1.383-1.36-2.106-2.26-3.527-4.75-7.424-8.03-9.733-5.13-3.612-10.94-.614-15.87 1.936-.26.133-.51.265-.77.394-8.19 4.209-15.494 9.846-22.523 15.771-.919.775-1.86 1.688-2.833 2.633-2.9 2.817-6.085 5.911-9.839 6.434-6.415.894-15.726-4.886-21.84-8.682-.751-.466-1.453-.902-2.096-1.292-23.861-14.483-41.387-39.644-46.06-67.421-2.311-13.73-3.592-29.932-1.158-43.729 6.335-35.905 36.691-59.617 64.114-80.225 2.307-1.734 4.798-3.743 7.43-5.865 11.144-8.987 24.805-20.003 37.625-20.727 19.15-1.082 33.24 9.395 47.42 19.933zm-98.286 60.083c4.478-10.484 10.67-23.118 22.707-26.049 19.249-4.686 36.989 7.986 45.319 24.638 13.09 26.133 17.01 60.248-3.5 83.17-5.29 5.912-12.78 11.883-20.7 13.611-17.354 3.786-30.461-7.575-38.308-22.019-12.449-22.921-15.923-48.996-5.518-73.351zM1211.51 173.95c8.48-1.168 16.88-2.326 24.91.05-3.49 12.11-11.11 23.581-18.35 34.485-2.08 3.127-4.13 6.208-6.04 9.243-.69 1.099-1.38 2.39-2.11 3.747-2.31 4.286-4.98 9.236-9 10.914-6.92 2.889-19.07-1.037-27.62-3.795-1.64-.531-3.15-1.019-4.46-1.406-34.27-10.109-61.4-31.753-70.78-67.294-10.56-40.027-2.05-86.37 25.96-117.074 10.13-11.102 22.14-21.842 33.55-31.632.94-.802 1.9-1.686 2.88-2.596 3.74-3.449 7.88-7.267 12.61-8.362 5.5-1.274 10.79 3.006 15.08 6.471.63.507 1.23.996 1.82 1.448 10.66 8.286 21.1 17.113 30.97 26.329.65.607 1.33 1.227 2.03 1.862 3.89 3.535 8.27 7.514 10.36 12.117 3.92 8.598-9.7 20.168-18.09 27.286-1.64 1.397-3.09 2.622-4.15 3.62-6.22 5.8-12.58 11.458-18.94 17.119-9.82 8.736-19.64 17.475-28.94 26.738-1.27 1.268-2.79 2.619-4.39 4.043-5.13 4.563-11.11 9.886-12.6 15.704-3.26 12.689 14.61 23.11 24.03 26.708 6.33 2.416 13.04 4.04 19.72 5.118 7.11 1.146 14.36.148 21.55-.843zm-54.92-64.352c-4.9 4.635-9.97 9.432-15.91 12.21-5.96-14.058-6.56-34.733-2.2-49.371 1.76-5.932 4.49-13.392 10.7-15.88 9.75-3.9 22.84 5.392 29.45 11.795 2.92 2.828 6.62 6.678 5.73 11.138-1.5 7.57-11.79 16.225-19.27 22.519-1.78 1.496-3.4 2.859-4.7 4.042a205.354 205.354 0 00-3.8 3.547z" fill="#FF6060"/><path d="M722.361 464.933L1174.5 93.93v18.484L756.485 469.198l-34.124-4.265z" fill="#FF6060"/><path fill-rule="evenodd" clip-rule="evenodd" d="M1205.42 257.449c8.67-5.455 18.12-11.404 27.18-12.741 9.53-1.408 21.99 6.804 29.56 11.822 23.29 15.417 40.81 36.848 49.75 63.471 9.99 29.758 15.03 73.528-5.44 100.153-13.09 17.032-31.39 26.947-49.78 36.909-.99.537-1.98 1.074-2.97 1.613-2.95 1.602-6.03 3.561-9.2 5.581-8.22 5.238-17.07 10.878-26 11.725-9.59.909-20.17-6.228-28.31-11.725-.92-.623-1.81-1.225-2.67-1.791-28.05-18.588-47.48-43.397-56.1-76.167-7.85-29.868-4.47-66.841 16.92-90.257 12.35-13.523 29.51-22.945 45.49-31.721.72-.392 1.43-.784 2.14-1.175 2.99-1.645 6.15-3.635 9.43-5.697zm-43.66 65.374c6.74-13.465 21.5-19.901 35.64-21.945 36.03-5.208 74.63 28.122 88.26 58.62 11.39 25.511 2.19 54.503-27.72 58.822-36.57 5.28-72.92-19.983-90.89-50.358-7.27-12.312-12.08-31.591-5.29-45.139zM411.092 113.137c3.16 2.988 6.605 6.246 8.145 9.838 1.622 3.781-.313 9.81-1.499 13.478-3.645 11.276-10.353 20.819-20.104 27.386-10.898 7.342-27.997 14.152-41 8.583-8.319-3.561-14.342-10.042-20.393-16.553l-.979-1.053c-.973-1.044-2.103-2.101-3.268-3.19-3.022-2.826-6.276-5.869-7.605-9.464-1.427-3.857.283-8.992 1.6-12.947.149-.448.293-.881.427-1.295 4.396-13.586 12.256-24.284 24.522-31.381 11.179-6.47 26.468-9.068 38.279-2.774 6.82 3.635 12.518 9.697 17.825 15.342l.71.755c.994 1.055 2.147 2.146 3.34 3.275zm-31.197-10.95c6.177 1.329 10.405 6.722 12.792 12.334 6.085 14.305-3.091 33.838-13.887 42.758-9.031 7.457-21.744 6.792-26.793-5.082-6.172-14.517-.001-32.249 10.265-42.945 4.162-4.333 11.408-8.399 17.623-7.065z" fill="#FF6060"/><path d="M1265.49 90.993l-12.8 36.967 22.75 27.015h21.33l19.9-27.015-7.11-31.28-19.9-12.796-24.17 7.11zM369.964 95.207l-30.201 24.863 5.317 34.915 18.195 11.125 31.075-12.664 10.251-30.395-10.307-21.301-24.33-6.543z" fill="#FF6060"/><path fill-rule="evenodd" clip-rule="evenodd" d="M1323.89 101.764c3.16 2.989 6.6 6.247 8.14 9.838 1.63 3.781-.31 9.811-1.5 13.479-3.64 11.275-10.35 20.819-20.1 27.386-10.9 7.341-28 14.152-41 8.583-8.32-3.562-14.34-10.042-20.39-16.553-.33-.351-.65-.702-.98-1.053-.97-1.044-2.1-2.101-3.27-3.191-3.02-2.826-6.28-5.869-7.6-9.463-1.43-3.858.28-8.993 1.6-12.948.14-.448.29-.88.42-1.295 4.4-13.585 12.26-24.283 24.52-31.38 11.18-6.47 26.47-9.068 38.28-2.774 6.82 3.635 12.52 9.696 17.83 15.341.24.253.47.505.71.756.99 1.055 2.15 2.145 3.34 3.274zm-31.2-10.949c6.18 1.329 10.41 6.722 12.79 12.334 6.09 14.304-3.09 33.837-13.88 42.758-9.03 7.457-21.75 6.791-26.8-5.082-6.17-14.517 0-32.249 10.27-42.945 4.16-4.334 11.41-8.4 17.62-7.065zM517.62 425.121c-3.126-3.617-5.922-7.228-8.448-11.285C524.425 403.441 763.9 229.18 778.899 218.4c2.274-1.635 4.549-3.269 6.823-4.902 1.937-1.391 4.072-3.147 6.337-5.01 6.711-5.521 14.568-11.984 21.823-12.677 5.872-.561 11.997 2.763 17.41 5.699 1.28.695 2.521 1.368 3.709 1.963 2.924 1.465 6.138 2.912 9.472 4.412 14.874 6.695 32.157 14.475 36.914 29.791 2.413 7.77 2.057 16.739 1.717 25.28-.117 2.93-.231 5.81-.231 8.574v66.298c0 2.753-.215 5.93-.443 9.291-.64 9.456-1.378 20.367 2.298 27.364 3.535 6.727 10.867 11.091 17.455 15.012 1.1.654 2.18 1.297 3.217 1.936-2.862 5.664-8.017 10.011-12.945 14.167-.859.724-1.711 1.442-2.542 2.161-1.453 1.254-2.899 2.531-4.348 3.81-6.2 5.474-12.466 11.006-19.588 15.127-2.367-1.924-5.156-3.958-8.102-6.107-9.645-7.034-20.972-15.295-24.645-24.926-1.309-3.431-1.201-7.41-1.098-11.178.027-.995.053-1.976.053-2.928-11.185 6.384-21.647 14.665-31.935 22.807-3.448 2.729-6.875 5.442-10.304 8.062-1.336 1.021-2.717 2.211-4.145 3.441-4.291 3.695-9.002 7.752-14.159 8.681-7.842 1.412-17.863-5.16-23.936-9.433-22.691-15.968-31.02-49.832-17.574-74.465 13.944-25.546 40.592-38.44 65.673-50.575l2.589-1.254c2.68-1.298 5.915-2.545 9.33-3.86 8.852-3.41 18.906-7.284 23.607-13.731 8.794-12.064-10.714-24.755-20.265-26.951-25.154-5.785-272.088 169.454-293.446 180.842zM805.434 311.35c8.87-5.577 17.557-9.971 28.159-10.197v42.318c0 1.136.055 2.357.111 3.621.221 4.924.471 10.502-2.368 14.257-7.643 10.107-25.935 19.062-38.574 17.085-16.51-2.583-21.448-22.729-16.237-36.374 1.933-5.06 4.76-9.949 8.252-14.085 5.629-6.669 13.314-12.008 20.657-16.625z" fill="#FF6060"/></svg>