<svg width="748" height="561" viewBox="0 0 748 561" fill="none" xmlns="http://www.w3.org/2000/svg">
<path d="M605.933 151.918C606.075 152.498 608.572 155.246 611.481 158.174L619.31 167.663C623.31 173.014 627.81 180.271 624.31 183.44C621.51 185.975 615.554 182.384 612.926 180.271C611.148 178.299 609.168 175.705 608.445 174.54C607.827 173.349 605.175 170.303 602.694 167.663C600.152 164.981 598.309 162.578 598.489 162.311C598.669 162.045 596.688 159.451 594.175 156.595C591.6 153.698 589.359 150.833 589.218 150.253C589.076 149.673 586.79 146.874 584.171 144.043C581.551 141.213 579.266 138.414 579.108 137.726C578.966 137.146 576.542 134.157 573.739 131.204C570.937 128.25 568.529 125.369 568.387 124.789C568.245 124.209 566.452 122.128 564.401 120.166C562.335 118.096 559.911 115.107 558.94 113.387C557.985 111.774 555.715 109.083 553.835 107.526L550.487 104.593L548.655 106.653L547.772 107.626L547.769 107.628C546.578 108.938 544.846 110.842 543.429 112.436C541.404 116.131 536.341 122.851 532.299 120.166C528.256 117.481 530.614 110.769 532.299 107.749C532.658 107.216 533.816 106.155 534.962 105.376C536.002 104.623 537.099 103.521 537.352 103.013C537.56 102.572 538.013 102.295 538.318 102.501C538.623 102.707 539.545 102.261 540.295 101.41L541.723 99.9494L534.153 94.8508C526.766 89.8756 515.528 80.0779 514.338 77.6289C514.013 76.9256 510.873 73.5508 507.444 70.0783C503.969 66.6724 501.057 63.3543 500.871 62.841C500.79 62.3021 498.964 60.0065 496.865 57.7207C494.766 55.435 492.294 52.1226 491.339 50.5103C490.368 48.7903 489.306 47.2035 488.94 46.9568C488.574 46.7101 488.136 45.2522 487.971 43.7845C487.246 37.4824 493.181 34.6 499.478 38.1629C503.198 40.2811 508.092 44.7405 509.572 47.2872C510.064 48.0061 512.699 50.9441 515.47 53.6822C518.195 56.4868 521.046 59.7638 521.709 60.8883C522.432 62.0539 525.145 65.1408 527.733 67.7555C530.381 70.4113 533.338 73.6627 534.322 75.1005C536.257 77.7607 545.976 87.3105 548.723 89.1608C549.944 89.9831 550.853 89.8199 552.842 88.4469C554.229 87.4427 555.509 86.4639 555.689 86.1973C555.868 85.9307 555.051 84.5084 553.839 83.0139C552.628 81.5193 551.856 80.0304 552.035 79.7638C552.349 79.2971 548.051 73.689 544.805 70.3398C544.024 69.523 543.561 68.6298 543.785 68.2964C544.01 67.9631 543.518 67.2443 542.663 66.6686C541.87 66.1341 540.767 65.004 540.198 64.1361C539.629 63.2683 537.774 61.1471 536.074 59.3236C534.374 57.5001 532.58 55.42 532.133 54.6344C530.824 52.4932 527.668 49.0106 522.957 44.6746C520.585 42.3989 518.425 40.0721 518.055 39.4354C517.73 38.732 515.936 36.6519 513.963 34.8384C509.403 30.4102 509.044 27.6491 512.411 22.6498C514.521 19.5168 515.019 19.1736 516.811 19.4116C520 19.8153 522.551 21.8245 527.537 27.9926C530.083 31.0639 535.078 36.5599 538.645 40.2225C542.213 43.885 545.678 47.9631 546.357 49.1954C547.035 50.4276 549.093 53.1699 551.009 55.3324C552.818 57.5203 554.156 59.487 553.931 59.8204C553.707 60.1537 553.955 60.7082 554.443 61.0371C554.931 61.3661 555.668 62.2494 556.098 62.9272C560.775 71.7941 563.82 76.3644 565.079 76.3401C565.519 76.3457 566.436 75.5102 567.155 74.4437C567.873 73.3772 568.897 72.5163 569.337 72.5219C569.838 72.5686 571.069 71.2666 572.147 69.6668C573.718 67.3338 573.936 66.2206 573.471 63.4851C572.642 59.0507 572.04 57.9673 567.489 52.8669C565.435 50.5145 563.609 48.2188 563.422 47.7055C563.297 47.2333 561.869 45.3998 560.352 43.6996C558.835 41.9995 556.684 39.0005 555.559 36.9826C554.449 35.0726 551.993 31.8679 550.065 29.9877C548.136 28.1076 546.111 25.5807 545.432 24.3484C544.77 23.2239 542.607 20.5071 540.63 18.3036C535.667 13.0231 534.777 11.842 535.181 11.242C535.36 10.9754 534.91 9.7999 534.186 8.63428C531.922 4.88081 534.981 -0.714105 538.886 0.0752707C541.545 0.606705 549.23 8.30191 551.224 12.4553C551.533 13.0509 553.346 15.6288 555.311 18.1145C557.214 20.5591 559.243 23.4759 559.844 24.5593C560.339 25.6682 561.169 26.8082 561.657 27.1372C562.146 27.4661 563.972 29.7618 565.769 32.232C567.566 34.7021 570.205 38.03 571.539 39.6068C572.934 41.2247 574.78 44.0182 575.767 45.846C576.755 47.6738 578.584 50.3595 579.918 51.9363C581.236 53.4053 582.468 55.3977 582.719 56.3421C582.851 57.2246 583.37 59.1695 583.841 60.9355L583.841 60.937L583.979 61.4543C585.255 66.6742 583.89 73.3127 580.433 78.4453C578.817 80.845 576.687 83.4802 575.618 84.4078C574.55 85.3354 572.16 87.6983 570.312 89.6514C568.525 91.6455 565.91 94.3418 564.572 95.6693L562.137 98.0988L565.304 102.751C567.057 105.288 569.558 108.426 570.859 109.787C574.138 113.352 582.077 122.382 582.907 123.522C583.216 124.117 583.842 124.636 584.131 124.734C584.375 124.898 585.128 125.89 585.684 127.04C586.286 128.123 588.542 131.097 590.824 133.506C593.062 135.981 594.888 138.277 594.891 138.667C594.895 139.057 597.302 141.938 600.259 145.19C603.261 148.374 605.807 151.446 605.933 151.918Z" fill="#4A667B"/>
<path d="M506.004 90.1351C505.65 89.6062 503.274 86.9405 500.626 84.2847C497.994 81.7366 495.326 78.5831 494.603 77.4175C493.985 76.2263 491.854 73.725 489.925 71.8449C485.243 67.3345 482.07 63.7441 480.929 61.6185C480.449 60.6173 477.988 58.4749 475.546 56.8302C471.822 54.322 470.771 53.9052 469.276 54.545C465.392 56.0955 463.094 62.0095 465.245 65.0085C465.953 66.0664 466.448 67.1753 466.269 67.4419C465.775 68.1752 468.857 71.8987 473.89 76.5481C476.262 78.8239 478.361 81.1096 478.486 81.5818C478.754 82.634 485.539 89.8203 490.035 93.8173C491.564 95.2353 492.76 96.622 492.581 96.8886C497.31 102.92 507.896 113.943 512.411 109.787C516.926 105.632 510.021 94.9543 506.004 90.1351Z" fill="#4A667B"/>
<path d="M742.789 314.346C745.791 317.531 747.461 320.981 747.704 324.44C748.033 328.827 746.991 331.033 743.807 332.861C739.763 335.176 738.745 334.975 734.657 330.768C732.757 328.713 731.147 326.756 731.143 326.366C731.14 325.976 728.305 322.807 724.859 319.227C721.369 315.713 718.273 312.272 718.01 311.61C717.701 311.014 715.277 308.025 712.641 305.087C710.006 302.149 707.842 299.432 707.794 299.109C707.758 298.503 701.194 290.594 691.859 279.946C689.085 276.818 686.34 273.516 685.71 272.607C684.495 270.722 681.033 267.034 676.013 262.103C674.146 260.264 672.352 258.184 672.027 257.48C671.702 256.777 669.327 254.111 666.678 251.455C658.107 242.969 657.477 238.766 664.311 236.392C667.865 235.201 672.025 237.324 677.692 243.273C679.974 245.682 682.712 248.204 683.75 248.903C684.787 249.602 685.585 250.527 685.588 250.917C685.547 251.373 687.279 253.412 689.407 255.524C698.788 264.652 700.334 266.178 700.569 267.015C700.756 267.528 703.131 270.194 705.857 272.999C708.582 275.803 710.958 278.469 711.038 279.008C711.164 279.48 711.73 279.958 712.292 280.046C712.915 280.175 713.558 280.801 713.715 281.489C713.873 282.177 716.847 285.536 720.337 289.05C723.827 292.563 727.09 296.02 727.537 296.806C727.984 297.591 731.079 301.033 734.386 304.423C737.694 307.813 740.59 311.024 740.715 311.496C740.902 312.009 741.809 313.298 742.789 314.346Z" fill="#4A667B"/>
<path d="M34.7076 200.733C33.6766 202.628 32.0027 203.409 28.9847 203.481C26.805 203.533 26.101 203.197 25.12 201.35C23.2951 198.042 23.3325 197.371 25.4153 192.735C29.7554 183.176 34.5125 176.254 42.5773 167.7C45.1783 164.992 47.7225 162.038 48.2865 161.249C48.7465 160.426 49.4546 159.739 49.8773 159.588C50.2361 159.473 50.857 158.929 51.2463 158.426C51.6357 157.923 55.2566 154.626 59.3236 151.071C69.1219 142.723 87.8995 131.232 98.9186 126.912C103.065 125.261 110.129 122.481 114.506 120.789C118.843 119.028 122.728 117.806 123.12 118.044C123.512 118.281 126.544 117.644 129.774 116.615C133.108 115.618 136.475 114.973 137.202 115.203C137.93 115.432 140.955 115.078 143.883 114.408C146.811 113.738 149.9 113.347 150.731 113.61C151.603 113.942 153.95 113.885 156.009 113.625C158.132 113.327 160.04 113.246 160.392 113.414C160.744 113.582 162.588 113.538 164.584 113.314C166.539 113.02 168.695 113.075 169.359 113.341C170.063 113.677 172.906 113.892 175.629 113.897C184.7 113.857 185.307 113.878 186.563 114.73C187.284 115.242 189.185 115.443 190.869 115.121C196.734 114.24 206.017 117.511 209.018 121.532C211.899 125.344 211.542 127.963 207.642 131.514C205.844 133.109 203.561 135.633 202.561 137.139C197.337 145.166 193.238 150.874 191.798 152.354C190.875 153.258 190.16 154.228 190.13 154.617C190.099 155.006 188.199 157.309 185.877 159.763C183.555 162.218 181.249 164.848 180.789 165.671C179.899 166.927 176.177 170.932 164.125 183.179C161.373 186.067 158.662 189.025 158.161 189.778C157.026 191.64 151.845 196.209 149.104 197.791C146.618 199.226 143.86 198.128 142.011 194.926C140.226 191.688 140.778 189.699 144.439 186.472C146.301 184.84 148.584 182.316 149.584 180.81C150.544 179.235 152.817 176.252 154.629 174.092C156.442 171.932 157.896 169.886 157.926 169.498C157.957 169.109 159.41 167.063 161.223 164.903C162.995 162.673 164.576 160.554 164.798 160.055C164.916 159.523 166.648 157.224 168.652 154.953C170.551 152.65 172.283 150.351 172.505 149.851C172.703 149.459 175.448 146.853 178.616 144.096L184.307 139.233L181.548 138.134C180.013 137.536 178.407 137.257 178.025 137.478C177.578 137.735 176.18 137.522 174.789 137.026C173.438 136.599 172 136.316 171.681 136.5C171.362 136.684 169.773 136.581 168.103 136.338C166.497 136.059 161.33 135.795 156.659 135.8C152.051 135.769 148.011 135.689 147.659 135.521C147.307 135.353 145.271 135.508 143.108 135.736C140.921 136.07 137.984 136.281 136.562 136.174C135.117 136.173 131.901 136.638 129.348 137.369C126.796 138.101 124.186 138.586 123.603 138.459C120.311 137.762 87.0748 152.032 84.101 155.419C83.1546 156.43 79.3564 159.272 75.6926 161.759C68.4759 166.482 59.879 173.673 58.6096 175.89C58.1496 176.713 55.1024 179.678 51.7836 182.615C48.505 185.622 45.6491 188.477 45.4911 188.94C45.3096 189.508 42.9636 192.069 40.3225 194.708C37.5774 197.313 35.0803 200.054 34.7076 200.733Z" fill="#4A667B"/>
<path d="M494.984 157.285C499.567 156.559 504.07 155.54 505.035 155.027C506.242 154.441 512.833 154.089 524.487 153.896C534.212 153.772 543.294 153.352 544.742 152.987C549.406 151.673 548.934 147.33 544.036 145.699C542.43 145.253 540.585 143.777 539.383 142.081C534.577 135.224 525.597 126.591 520.781 124.151C518.854 123.263 516.848 122.081 516.286 121.564C514.682 120.162 509.702 119.12 504.398 119.107C500.219 119.097 499.012 119.388 496.115 121.295C493.136 123.275 487.978 129.372 487.974 130.991C487.973 131.286 486.683 133.049 485.152 134.959C483.62 136.796 482.329 138.927 482.328 139.737C482.326 140.473 482.003 141.134 481.601 141.134C481.199 141.133 480.231 142.602 479.343 144.44C478.292 146.867 477.567 147.601 476.523 147.304C475.8 147.082 474.514 147.226 473.709 147.665C472.905 148.032 471.618 148.544 470.813 148.763C468.722 149.346 467.751 152.362 468.709 155.014C469.348 156.708 470.31 157.447 472.479 157.967C479.387 159.676 481.477 159.608 494.984 157.285Z" fill="#4A667B"/>
<path d="M338.006 175.114C336.801 175.111 335.594 175.476 335.352 175.843C334.707 176.799 334.064 176.723 332.379 175.615C329.571 173.621 332.64 167.52 340.212 160.177C342.87 157.608 345.771 154.597 346.657 153.495C347.24 152.771 348.17 151.699 349.059 150.674L349.066 150.665L349.067 150.664L349.086 150.642C349.541 150.118 349.985 149.606 350.364 149.161C351.573 147.839 352.702 146.149 353.026 145.34C353.269 144.531 354.559 142.694 355.929 141.299C357.218 139.903 358.346 138.508 358.347 138.213C358.351 136.594 364.872 131.899 368.249 131.024C370.34 130.513 372.271 129.782 372.513 129.488C373.077 128.606 383.846 128.706 384.487 129.59C384.727 130.033 385.691 130.329 386.575 130.331C387.459 130.333 389.065 131.147 390.027 132.106C391.069 132.992 392.514 134.026 393.236 134.248C394.682 134.767 398.527 140.149 399.244 142.801C399.643 143.979 400.605 144.865 401.97 145.162C403.175 145.46 405.503 146.716 407.268 147.972C408.953 149.227 410.96 150.262 411.683 150.264C412.406 150.266 413.611 150.563 414.414 150.933C415.136 151.303 416.742 151.969 418.027 152.414C420.596 153.377 420.992 156.027 418.737 157.862C417.932 158.523 414.393 159.765 410.855 160.567C407.397 161.368 403.054 162.535 401.285 163.12C399.515 163.705 394.851 164.724 390.832 165.303C386.892 165.956 382.872 166.756 381.987 167.122C380.378 167.781 370.408 169.597 363.896 170.391C361.886 170.607 359.554 171.117 358.67 171.483C356.498 172.287 340.578 175.12 338.006 175.114Z" fill="#4A667B"/>
<path d="M222.352 176.143C228.3 175.789 238.669 175.298 245.259 175.093C251.93 174.962 258.602 174.463 260.13 174.172C261.658 173.807 265.517 173.081 268.572 172.646C271.707 172.139 274.924 171.41 275.809 170.971C278.223 169.872 280.238 167.448 280.242 165.755C280.167 163.547 276.477 160.594 272.22 159.406C268.044 158.145 266.279 156.816 265.401 154.312C264.683 152.102 263.401 150.627 256.985 144.649C251.212 139.336 248.965 137.859 240.616 133.938C235.077 131.349 228.649 130.45 226.877 131.991C226.394 132.358 224.705 133.017 223.097 133.455C220.201 134.331 210.376 142.993 210.371 144.833C210.37 145.274 209.804 146.671 209.078 147.847C208.352 149.097 207.059 151.891 206.17 154.097C204.553 158.215 203.183 159.61 197.791 162.909C193.445 165.548 187.807 170.687 187.804 171.865C187.799 173.705 191.41 176.142 195.105 176.887C198.56 177.558 200.971 177.49 222.352 176.143Z" fill="#4A667B"/>
<path d="M399.525 179.428C399.2 180.899 398.392 182.59 397.748 183.251C395.976 184.792 391.556 184.634 389.069 182.788C386.02 180.573 386.269 177.335 389.571 174.62C392.792 172.051 394.399 172.055 397.527 174.639C399.773 176.484 400.013 177 399.525 179.428Z" fill="#4A667B"/>
<path d="M362.067 185.041C365.853 181.296 363.855 176.434 358.471 176.2C356.543 176.122 355.577 176.635 354.045 178.471C352.031 180.822 351.382 183.249 352.748 183.252C353.15 183.253 353.711 183.917 354.031 184.654C354.989 187.379 359.489 187.611 362.067 185.041Z" fill="#4A667B"/>
<path fill-rule="evenodd" clip-rule="evenodd" d="M547.496 211.361C547.713 221.592 546.18 223.797 535.076 229.438C530.892 231.636 530.007 231.781 523.417 231.692C516.184 231.601 511.043 230.705 511.046 229.601C511.047 229.233 510.084 228.569 508.879 228.124C506.23 227.087 501.901 222.587 501.023 219.935C500.704 218.904 498.944 215.293 497.104 211.83C494.144 206.155 493.825 205.05 493.837 200.045C493.932 194.01 494.255 193.275 500.702 185.93C502.717 183.653 505.455 181.304 506.742 180.718C515.512 176.691 519.772 176.333 526.034 179.145C530.289 181.069 539.272 188.672 539.268 190.364C539.267 190.953 540.148 192.133 541.191 193.019C542.153 193.904 543.674 196.484 544.472 198.694C545.27 200.904 546.23 203.114 546.63 203.631C547.031 204.073 547.425 207.533 547.496 211.361ZM524.903 215.503C520.566 214.314 516.557 210.11 514.321 204.216L512.324 198.985L514.18 195.898C516.439 192.224 519.898 191.054 522.464 193.195C524.63 194.967 531.91 208.895 532.545 212.282C533.259 216.258 531.087 217.137 524.903 215.503Z" fill="#4A667B"/>
<path fill-rule="evenodd" clip-rule="evenodd" d="M394.585 247.428C396.437 246.328 398.37 244.493 398.935 243.39C399.42 242.287 400.146 241.258 400.468 241.038C401.273 240.451 403.538 234.274 403.542 232.36C403.545 231.403 403.95 229.932 404.434 229.124C406.129 226.257 407.674 218.68 407.686 213.601C407.698 208.67 405.788 200.569 404.582 200.566C404.261 200.565 403.3 199.238 402.5 197.543C399.3 191.5 391.673 188.023 381.547 187.999C375.117 188.057 371.097 188.931 363.454 192.151C357.903 194.493 356.937 195.153 355.645 197.8C354.837 199.417 353.547 201.401 352.822 202.062C352.016 202.796 351.371 203.751 351.37 204.119C351.369 204.561 350.642 206.326 349.754 207.943C348.058 211.177 347.477 218.831 348.924 218.834C349.406 218.835 349.727 219.204 349.726 219.646C349.721 221.854 357.326 234.385 360.453 237.336C365.184 241.764 366.949 243.166 367.753 243.168C368.074 243.169 369.599 243.982 371.043 245.016C376.098 248.561 380.194 249.822 385.9 249.615C390.16 249.478 391.929 249.041 394.585 247.428ZM380.253 225.092C378.728 224.131 376.483 221.771 375.282 219.854C374.162 218.011 372.158 215.725 371.035 214.839L368.869 213.288L370.8 212.115C376.032 208.962 382.22 209.124 386.23 212.52C388.075 214.07 388.554 215.249 388.867 218.709C389.571 226.807 386.431 229.155 380.253 225.092Z" fill="#4A667B"/>
<path fill-rule="evenodd" clip-rule="evenodd" d="M245.481 249.829C244.675 250.71 242.985 251.81 241.778 252.396C238.318 254.081 225.863 253.021 225.868 251.107C225.869 250.739 225.307 250.443 224.664 250.442C220.646 250.432 214.87 245.708 212.552 240.697C211.753 238.708 210.792 237.16 210.47 237.159C210.149 237.159 209.11 234.801 208.152 231.928C206.796 227.803 206.56 225.594 206.891 221.768C207.385 216.838 209.569 210.66 210.855 210.663C211.177 210.664 211.5 210.002 211.501 209.193C211.507 206.764 214.483 206.035 223.966 206.131C235.619 206.38 238.51 207.343 246.692 213.766C254.954 220.263 255.914 222.032 255.492 230.642C255.237 236.383 254.913 237.633 252.088 242.632C250.393 245.793 248.538 248.291 247.976 248.289C247.494 248.288 246.367 248.948 245.481 249.829ZM226.702 238.155C226.06 237.933 224.776 237.046 223.894 236.161C221.809 234.169 221.826 227.397 223.922 224.385C225.293 222.548 225.776 222.328 228.507 222.703C234.051 223.378 240.547 229.135 238.853 231.854C238.369 232.589 237.642 234.059 237.157 235.162C236.187 237.736 230.396 239.415 226.702 238.155Z" fill="#4A667B"/>
<path d="M380.289 465.746C379.395 503.65 378.577 509.389 373.26 514.97C370.44 517.908 370.199 517.981 365.376 517.969C360.635 517.958 360.394 517.81 357.909 515.081C355.184 512.057 352.868 505.648 352.879 501.084C352.883 499.686 352.566 497.551 352.087 496.298C351.688 495.046 350.582 487.241 349.717 478.922C348.773 470.603 347.745 463.534 347.344 463.092C347.023 462.723 345.99 458.083 345.038 452.782C344.086 447.554 342.973 442.252 342.575 440.999C341.298 437.095 339.41 419.941 339.43 411.698C339.449 403.749 341.322 393.522 342.768 393.526C343.17 393.527 343.492 393.159 343.493 392.718C343.502 389.185 349.786 382.576 359.527 375.901C364.276 372.6 365.081 372.308 370.627 371.806C379.148 371.163 395.783 371.866 398.11 373.049C399.234 373.567 400.839 374.601 401.722 375.339C402.604 376.151 403.486 376.742 403.808 376.742C404.049 376.743 405.17 378.291 406.21 380.281C407.331 382.198 408.452 383.893 408.693 384.115C409.495 384.705 410.849 389.787 411.48 394.72C411.796 397.15 413.39 402.6 415.148 406.873C418.903 416.303 420.258 420.944 421.204 428.674C422.152 435.595 425.969 452.68 426.931 453.713C427.251 454.155 428.368 457.617 429.324 461.447C430.279 465.277 431.395 469.107 431.795 469.917C432.834 472.054 435.692 487.076 435.683 490.683C435.679 492.376 436.077 493.996 436.479 494.218C437.442 494.809 437.488 509.088 436.522 509.601C436.12 509.821 435.555 510.923 435.231 512.027C434.987 513.204 433.777 514.967 432.569 516.142C430.877 517.831 429.831 518.123 426.456 518.115C423.161 518.107 421.956 517.736 420.433 516.26C419.39 515.227 418.267 514.415 417.946 514.414C416.66 514.411 411.537 505.714 411.542 503.579C411.544 502.991 410.825 501.149 409.944 499.527C409.064 497.832 407.547 493.854 406.67 490.687C405.714 487.52 404.675 484.941 404.353 484.941C404.032 484.94 402.912 482.582 401.955 479.709C400.997 476.763 399.719 473.742 399.158 472.857C398.517 471.973 397.48 468.805 396.684 465.785C395.968 462.766 395.09 459.893 394.69 459.451C394.289 458.935 393.175 454.148 392.304 448.773C391.353 443.324 390.32 438.243 389.92 437.432C388.8 435.148 386.829 419.245 386.766 412.179C386.699 406.585 386.619 406.143 385.891 408.349C385.485 409.747 384.839 411.291 384.436 411.658C382.26 414.229 381.098 429.609 380.289 465.746Z" fill="#4A667B"/>
<path d="M202.858 523.838C204.467 523.179 206.077 522.153 206.32 521.417C206.562 520.755 207.529 519.654 208.415 518.993C210.106 517.746 210.837 514.583 212.151 502.515C212.482 499.609 213.398 492.163 214.342 484.49L214.521 483.034C214.688 481.67 214.856 480.306 215.02 478.969C216.167 469.698 217.074 460.352 217.159 458.218C217.164 456.157 217.571 454.171 217.973 453.951C218.456 453.731 218.78 452.628 218.863 451.524C218.948 449.684 218.948 449.684 219.665 452.041C220.144 453.367 221.176 459.037 221.966 464.559C224.26 479.874 227.434 497.252 228.314 498.874C228.714 499.684 229.592 502.262 230.309 504.693C231.744 509.481 236.865 519.135 237.91 519.137C238.312 519.138 238.792 519.728 239.112 520.539C239.75 522.527 246.175 524.604 250.114 524.098C254.133 523.592 256.63 521.537 259.858 515.878L262.44 511.467L262.413 489.386C262.364 476.064 261.987 465.391 261.351 462.519C260.876 459.868 260.242 456.113 260.086 454.051L259.808 451.261L259.807 451.258C256.857 421.646 256.237 415.423 252.763 411.143C251.838 410.004 250.711 409.003 249.285 407.736L248.945 407.434C246.539 405.294 242.367 402.56 239.557 401.302C234.981 399.157 233.535 398.933 222.125 398.169C209.669 397.404 191.102 398.169 187.804 399.633C187.157 399.919 186.564 400.178 186.02 400.416L186.001 400.424L185.997 400.426C182.819 401.814 181.313 402.471 180.381 403.546C179.542 404.513 179.168 405.819 178.458 408.299L178.226 409.106C178.171 409.296 178.114 409.492 178.055 409.694C177.002 413.371 175.784 418.447 175.376 421.096C174.478 426.982 175.067 449.653 176.185 452.379C176.665 453.484 177.363 464.011 177.737 475.862C178.712 504.864 179.577 512.889 182.299 517.606C184.459 521.586 186.947 523.138 192.329 524.181C197.551 525.077 199.641 525.008 202.858 523.838Z" fill="#4A667B"/>
<path d="M562.301 542.139C564.634 541.114 566.807 539.647 567.05 538.912C567.293 538.176 568.1 537.074 568.824 536.414C569.63 535.606 570.278 533.546 570.445 530.676C570.696 526.923 570.457 525.892 569.094 524.417C568.132 523.458 567.411 522.425 567.412 522.057C567.413 521.763 565.807 520.95 563.8 520.209C560.829 519.171 558.659 519.019 552.309 519.372C548.049 519.582 541.701 519.42 538.246 518.97C532.943 518.295 531.496 518.439 528.038 519.535C521.442 521.653 516.044 527.455 517.16 531.138C518.676 535.926 521.08 539.023 524.612 540.43C526.539 541.244 528.627 541.911 529.19 541.913C529.833 541.914 530.395 542.21 530.554 542.652C531.034 543.831 540.997 544.812 549.678 544.391C556.67 544.113 558.841 543.75 562.301 542.139Z" fill="#4A667B"/>
<path d="M454.934 540.411C453 542.394 451.632 542.906 447.13 543.631C438.286 545.082 422.375 544.308 421.094 542.465C420.853 542.096 419.73 541.431 418.686 541.06C417.241 540.542 416.359 539.362 415.642 537.005C414.286 532.733 415.017 529.422 417.753 527.81C418.96 527.15 420.49 525.976 421.295 525.316C422.02 524.655 424.031 523.85 425.72 523.56C427.408 523.269 429.821 522.613 431.028 522.027C432.235 521.441 436.335 520.788 440.032 520.576C446.061 520.222 447.025 520.298 449.673 521.85C451.279 522.811 453.685 524.878 454.967 526.5C456.89 528.933 457.289 530.186 457.28 533.719C457.271 537.472 456.948 538.355 454.934 540.411Z" fill="#4A667B"/>
<path d="M354.13 549.518C357.105 549.01 360.161 548.06 361.449 547.107C362.657 546.226 365.232 544.908 367.243 544.103C376.253 540.591 378.684 532.133 372.429 526.303C370.023 524.163 369.3 523.867 365.523 523.931C363.192 523.926 359.494 524.285 357.243 524.648C355.072 525.084 349.767 525.439 345.588 525.503C337.068 525.704 327.582 526.932 323.64 528.469C316.803 531.028 318.298 544.501 325.763 548.199C329.616 550.122 345.608 550.823 354.13 549.518Z" fill="#4A667B"/>
<path d="M199.579 553.873C198.293 553.87 195.719 554.6 193.708 555.405C189.123 557.381 181.808 557.732 175.462 556.392C170 555.275 165.584 553.424 165.587 552.32C165.588 551.952 165.107 551.215 164.546 550.699C162.782 549.075 161.666 545.171 162.155 542.376C162.48 540.536 163.932 538.553 167.154 535.543C171.181 531.725 172.227 531.138 177.293 530.046C180.429 529.318 183.968 528.443 185.254 528.078C186.541 527.713 188.149 527.643 188.871 528.013C189.594 528.383 191.843 528.903 194.012 529.129C196.503 529.503 198.991 530.54 201.398 532.238C203.404 533.642 205.331 534.75 205.732 534.751C207.018 534.754 210.619 541.461 210.614 543.669C210.611 544.846 210.205 546.538 209.64 547.494L208.187 550.14C207.945 550.728 207.139 551.463 206.496 551.682L203.599 553C202.553 553.513 200.784 553.876 199.579 553.873Z" fill="#4A667B"/>
<path d="M282.048 546.108C280.108 550.74 272.703 555.507 265.467 556.667C262.894 557.103 259.518 557.389 257.991 557.385C252.848 557.152 245.538 555.736 244.415 554.777C243.854 554.187 242.81 553.743 242.247 553.741C240.238 553.736 238.4 549.389 238.891 545.784C239.218 543.356 239.945 541.959 241.958 540.124C245.905 536.748 247.755 536.016 256.76 534.492C261.182 533.766 265.764 532.968 266.89 532.749C269.463 532.24 278.059 533.807 278.056 534.763C278.056 535.131 278.537 535.427 279.1 535.428C282.314 535.436 283.988 541.475 282.048 546.108Z" fill="#4A667B"/>
<path d="M493.266 541.827C492.462 541.825 491.818 542.192 491.817 542.56C491.816 543.001 489.485 543.29 486.431 543.209C480.645 543.122 472.533 540.747 471.895 538.906C471.735 538.39 470.854 537.284 469.972 536.472C467.807 534.48 468.539 530.507 471.358 528.158C472.485 527.204 473.372 526.102 473.373 525.734C473.375 524.777 479.327 522.657 481.738 522.663C485.596 522.672 493.627 525.047 497.078 527.189C501.171 529.775 502.368 532.943 500.591 536.766C499.541 539.192 495.677 541.833 493.266 541.827Z" fill="#4A667B"/>
<path d="M483.282 515.748C484.57 514.868 486.181 513.252 486.827 512.002C487.553 510.827 488.36 509.651 488.762 509.431C489.808 508.771 491.836 500.9 492.412 495.529C492.659 492.88 493.229 490.01 493.552 489.202C493.956 488.393 494.445 485.229 494.613 482.212C495.12 471.908 498.823 435.925 499.304 436.221C499.625 436.369 500.502 439.241 501.298 442.629C502.094 446.017 503.21 449.479 503.771 450.363C504.412 451.248 505.609 454.563 506.566 457.657C507.523 460.824 508.561 463.918 508.961 464.508C509.281 465.171 510.399 468.191 511.276 471.211C512.233 474.231 513.271 477.104 513.672 477.473C513.992 477.915 514.712 479.536 515.271 481.157C515.829 482.777 517.188 485.872 518.228 488.083C519.347 490.293 520.783 494.934 521.418 498.395C522.052 501.856 522.847 505.39 523.247 506.201C523.647 507.012 524.366 508.927 524.845 510.474C525.882 513.568 527.567 514.676 531.344 514.685C536.408 514.697 544.951 504.339 544.966 498.156C544.968 497.347 545.453 496.17 546.017 495.656C547.305 494.482 547.557 456.577 546.194 455.028C545.713 454.438 544.836 451.713 544.36 448.841C543.804 446.043 542.528 441.918 541.408 439.707C540.369 437.57 539.49 435.433 539.491 435.065C539.492 434.697 538.693 432.635 537.653 430.571C533.254 421.581 530.617 415.392 529.181 410.752C527.187 404.344 519.827 390.489 517.9 389.527C517.097 389.157 516.215 388.198 515.976 387.462C515.656 386.651 513.571 384.953 511.244 383.549C507.163 381.044 506.911 381.037 496.793 380.721L496.704 380.718C490.275 380.555 485.131 380.764 483.201 381.274C476.365 383.172 470.646 388.31 465.965 396.764C463.221 401.615 462.547 414.788 464.035 430.764C464.82 438.788 464.731 442.247 463.497 454.315C462.428 464.691 462.17 471.609 462.472 479.927C462.927 490.969 464.903 504.958 466.187 505.697C466.508 505.919 467.227 507.76 467.704 509.896C469.616 517.187 477.003 519.928 483.282 515.748Z" fill="#4A667B"/>
<path d="M246.062 201.043C249.924 199.36 250.984 193.032 247.45 191.993C246.647 191.697 245.925 191.18 245.926 190.812C245.928 189.782 239.016 189.986 237.969 191.088C235.471 193.879 236.419 200.652 239.31 201.395C241.88 202.064 243.97 201.922 246.062 201.043Z" fill="#4A667B"/>
<path d="M222.612 193.848C222.606 196.35 222.202 196.938 220.03 198.184C217.052 199.797 216.168 200.015 216.17 198.911C216.171 198.543 215.449 198.173 214.645 198.172C213.841 198.17 211.996 196.988 210.713 195.66C207.987 192.783 207.992 190.869 210.811 188.079C214.84 183.967 222.626 187.813 222.612 193.848Z" fill="#4A667B"/>
<path d="M508.77 172.848C509.898 171.82 510.383 170.423 510.389 167.847C510.397 164.829 510.077 163.945 507.992 162.321C505.746 160.475 501.569 159.582 501.565 160.907C501.565 161.275 500.679 161.935 499.553 162.374C497.783 163.106 497.54 163.694 497.533 166.712C497.527 169.435 497.926 170.614 499.69 172.237C502.336 174.746 506.354 175.05 508.77 172.848Z" fill="#4A667B"/>
<path d="M535.109 163.193C535.586 165.475 534.371 169.226 532.842 170.106C530.508 171.425 524.805 170.307 523.283 168.169C522.001 166.473 522.655 161.838 524.266 160.37C527.568 157.36 534.074 159.142 535.109 163.193Z" fill="#4A667B"/>
<path d="M226.889 388.465C231.07 387.813 234.929 387.086 235.332 386.719C235.815 386.426 238.469 385.549 241.284 384.819C244.018 384.09 247.477 382.7 248.846 381.746C250.295 380.793 251.824 380.06 252.225 380.061C253.994 379.992 258.182 375.954 258.992 373.453C259.478 372.056 259.974 366.021 260.229 360.06C260.404 354.099 260.98 348.801 261.383 348.286C261.786 347.772 262.677 344.83 263.247 341.814C263.816 338.797 265.518 332.84 266.975 328.648C268.512 324.456 269.727 320.632 269.728 320.19C269.729 319.748 270.456 318.131 271.344 316.587C272.231 315.117 272.958 313.5 272.96 312.985C272.961 312.543 274.253 309.749 275.867 306.882C278.047 302.913 279.82 300.856 282.718 298.802C285.616 296.822 286.744 295.5 287.151 293.513C288.045 289.247 287.113 275.481 285.753 273.048C285.113 271.869 283.995 268.849 283.277 266.345C281.922 261.778 273.281 245.491 270.796 242.909C268.952 240.917 264.777 239.435 262.123 239.944C259.229 240.453 257.538 241.773 252.381 247.576C243.919 257.198 235.069 261.298 225.428 260.024C220.286 259.349 213.62 257.346 212.819 256.24C212.418 255.798 208.405 253.654 201.983 250.547C200.425 250.97 195.048 251.933 185.997 252.396C174.685 252.976 160.31 236.161 157.81 230.124C157.381 229.088 156.996 227.783 156.574 226.354L156.574 226.353C154.539 219.456 151.649 209.659 138.81 213.115C123.31 217.287 126.81 240.697 133.31 262.935C138.51 280.724 168.81 288.68 183.31 290.435C181.16 298.835 179.839 306.201 179.447 308.834V327.678C179.222 354.689 179.677 366.025 181.35 371.991C182.386 375.748 186.395 379.805 191.212 381.878C199.08 385.282 213.785 390.348 226.889 388.465Z" fill="#4A667B"/>
<path d="M390.652 366.554C380.444 366.824 370.638 367.316 368.869 367.753C360.747 369.648 348.616 367.852 344.285 364.162C343.242 363.276 342.199 362.611 341.797 362.61C341.476 362.609 340.114 360.692 338.833 358.408C337.073 355.018 336.356 352.366 335.569 345.519C335.018 340.734 334.79 335.139 335.117 333.006C335.771 328.149 334.525 311.365 333.326 308.859C332.846 307.828 331.891 303.851 331.257 300.022C330.363 296.884 329.765 294.699 329.333 293.122C328.585 290.387 328.337 289.481 327.909 288.606C323.376 279.334 312.41 258.527 304.81 249.473C295.31 238.155 284.355 211.275 285.753 201.043C287.151 190.812 291.31 176.015 300.81 175.093C310.31 174.172 318.711 180.504 323.31 198.172C327.909 215.839 332.626 221.969 337.212 224.385C340.88 226.317 344.737 230.397 346.207 232.196C347.169 233.302 349.812 236.841 352.055 240.011C356.06 245.762 360.068 250.041 361.515 250.044C361.916 250.045 363.12 250.857 364.243 251.817C365.366 252.777 368.417 254.109 370.906 254.851C373.476 255.593 375.966 256.482 376.527 256.851C377.089 257.221 380.303 257.596 383.758 257.678L383.763 257.678C386.522 257.741 388.217 257.78 389.745 257.338C392.179 256.635 394.192 254.715 399.411 249.74L399.691 249.473C412.499 237.138 412.821 236.918 418.286 236.931C427.85 236.954 436.838 242.348 440.436 250.232C440.688 250.76 440.946 251.312 441.198 251.85L441.211 251.876L441.211 251.877L441.212 251.88C441.835 253.208 442.415 254.448 442.755 255.022C448.311 263.978 453.773 271.299 455.81 273.84C463.31 283.539 474.147 304.535 457.497 310.935C440.846 317.335 432.787 304.767 430.839 297.683C429.723 294.074 428.526 290.391 428.126 289.581C427.869 292.936 427.467 296.004 427.098 298.821C426.634 302.368 426.221 305.518 426.214 308.349C426.194 316.887 427.31 325.935 427.31 325.935C427.965 327.328 428.249 330.508 428.587 334.291C428.786 336.511 429.002 338.939 429.324 341.334C430.666 351.2 425.063 360.748 415.654 363.301C413.402 363.885 410.989 364.762 410.345 365.276C409.62 365.789 402.627 366.214 390.652 366.554Z" fill="#4A667B"/>
<path d="M519.948 373.045C517.778 373.26 515.526 373.844 514.963 374.211C513.755 375.091 494.305 375.486 485.386 374.729C477.512 374.121 473.736 373.376 469.722 371.453C468.277 370.787 466.43 370.268 465.707 370.266C464.26 370.262 462.502 366.063 462.51 362.677C461.022 358.588 456.001 327.2 465.342 319.94C473.156 313.867 477.156 309.75 476.156 302.44C475.636 298.633 475.352 297.935 474.957 296.961C474.593 296.066 474.135 294.937 473.31 290.94C472.588 286.917 468.271 279.762 466.579 276.957C466.227 276.373 465.989 275.978 465.92 275.838C463.97 273.446 459.867 267.298 459.051 261.842C458.147 259.917 458.013 255.529 457.822 249.331C457.743 246.753 457.654 243.862 457.497 240.704C456.809 225.614 457.782 222.01 464.145 216.137C467.609 212.907 469.62 212.028 473.156 212.037C477.014 212.046 480.545 214.115 483.028 217.875C483.749 218.907 485.832 221.267 487.677 223.038C489.441 224.809 490.964 226.505 490.963 226.8C490.961 227.756 502.669 238.31 507.323 241.559C509.89 243.406 514.224 245.992 516.953 247.323C520.967 249.32 522.493 249.692 525.467 249.405C531.014 248.903 537.049 245.678 540.676 241.271C544.303 236.863 548.97 234.445 554.999 233.871C562.436 234.489 579.91 233.94 590.31 226.8L592.084 225.582C604.395 217.134 615.607 209.44 621.81 203.631C622.527 202.96 623.334 202.155 624.218 201.274L624.221 201.271C631.352 194.164 643.414 182.142 652.31 195.898C661.124 209.527 627.249 234.294 622.137 237.765C622.276 237.619 622.177 237.665 621.81 237.931C621.282 238.314 621.449 238.232 622.137 237.765C620.193 239.817 571.633 279.635 558.31 282.435C556.972 282.745 554.451 284.413 555.068 288.606V306.002C555.058 310.345 554.148 321.236 552.666 335.88C552.009 342.061 548.605 354.05 547.156 354.93C546.754 355.15 545.785 356.693 544.978 358.384C543.928 360.589 541.753 362.572 536.521 366.166C529.275 371.153 526.701 372.178 519.948 373.045Z" fill="#4A667B"/>
<path d="M16.183 370.366C16.1527 372.924 6.83915 379.148 4.28931 378.321C3.35735 378.013 1.815 376.483 0.924419 374.941C-1.17106 371.311 0.222576 367.361 5.85809 360.478C8.12644 357.717 10.0597 355.028 10.2741 354.42C10.6323 353.245 13.2381 349.926 17.0999 345.519C18.6409 343.782 19.6532 342.109 19.4437 341.746C19.2341 341.383 20.2465 339.71 21.7169 338.014C25.8796 333.312 28.2027 330.156 28.2076 329.185C28.2807 328.659 30.4259 325.848 33.0476 322.882C35.7923 319.967 38.0789 317.074 38.2933 316.466C38.3846 315.809 41.0952 312.671 44.1408 309.461C47.1864 306.251 50.1271 302.859 50.6424 301.957C51.1578 301.054 53.7612 298.22 56.3463 295.518C58.9837 292.906 62.7383 288.803 64.7581 286.427C66.7779 284.051 70.195 280.505 72.372 278.402C74.549 276.298 76.5323 274.185 76.6237 273.527C76.8381 272.92 79.7265 269.437 83.0206 265.842C86.4377 262.296 90.4956 257.412 92.1804 255.109C93.8652 252.805 96.6989 249.718 98.3971 248.253C100.095 246.789 101.495 245.134 101.497 244.648C101.448 244.072 103.358 242.486 105.76 241.099C109.858 238.733 110.458 238.628 114.712 240.286C117.173 241.285 119.474 242.497 119.736 242.95C120.679 244.583 119.084 249.98 116.709 253.046C115.521 254.578 114.509 256.252 114.454 256.646C114.399 257.041 112.395 259.771 109.967 262.745C107.487 265.629 105.13 268.563 104.721 269.161C104.366 269.85 103.887 270.489 103.728 270.703C103.653 270.802 103.519 271.017 103.357 271.276C103.172 271.571 102.95 271.927 102.733 272.245C99.0921 278.34 88.1744 291.902 79.9062 300.426C76.3295 304.185 72.9648 307.821 72.4494 308.724C71.9341 309.626 67.5278 313.743 62.7681 318.063C57.9561 322.293 53.8324 326.247 53.6886 326.814C53.4742 327.422 50.9781 329.952 47.9715 332.413C35.5893 342.95 33.7315 344.627 32.7557 346.038C32.2404 346.94 29.4592 350.119 26.6073 353.338C23.7737 356.426 21.4164 359.359 21.414 359.845C21.3592 360.239 20.1848 362.611 18.7985 365.105C17.4122 367.599 16.2379 369.971 16.183 370.366Z" fill="#4A667B"/>
</svg>
