<svg width="748" height="561" viewBox="0 0 748 561" fill="none" xmlns="http://www.w3.org/2000/svg">
<path d="M187.512 557.662C189.523 556.857 192.097 556.128 193.383 556.131C194.588 556.133 196.357 555.77 197.403 555.257L200.3 553.939C200.943 553.72 201.749 552.986 201.991 552.397L203.444 549.751C204.009 548.796 204.415 547.104 204.418 545.926C204.423 543.718 200.822 537.012 199.536 537.008C199.135 537.007 197.208 535.899 195.202 534.496C192.795 532.797 190.307 531.761 187.816 531.387C185.647 531.161 183.398 530.64 182.675 530.27C181.953 529.901 180.345 529.97 179.058 530.335C177.772 530.7 174.233 531.575 171.097 532.304C166.031 533.396 164.985 533.982 160.958 537.8C157.736 540.81 156.285 542.794 155.959 544.633C155.47 547.429 156.586 551.332 158.35 552.956C158.911 553.472 159.392 554.21 159.391 554.578C159.388 555.682 163.804 557.532 169.266 558.649C175.612 559.989 182.927 559.639 187.512 557.662Z" fill="#4A667B"/>
<path d="M265.793 556.966C273.028 555.805 280.434 551.039 282.374 546.406C284.313 541.774 282.64 535.735 279.425 535.727C278.863 535.726 278.381 535.43 278.382 535.062C278.384 534.105 269.789 532.539 267.216 533.048C266.09 533.266 261.507 534.065 257.085 534.79C248.08 536.315 246.23 537.046 242.284 540.423C240.271 542.258 239.544 543.655 239.217 546.083C238.726 549.688 240.564 554.035 242.573 554.04C243.136 554.041 244.179 554.485 244.741 555.075C245.863 556.035 253.174 557.451 258.317 557.684C259.844 557.688 263.22 557.401 265.793 556.966Z" fill="#4A667B"/>
<path d="M354.456 549.817C357.43 549.309 360.487 548.359 361.775 547.405C362.983 546.525 365.557 545.206 367.569 544.401C376.578 540.89 379.009 532.431 372.755 526.602C370.349 524.462 369.626 524.165 365.849 524.23C363.518 524.224 359.82 524.584 357.569 524.946C355.398 525.383 350.093 525.738 345.914 525.802C337.394 526.002 327.908 527.231 323.966 528.767C317.129 531.327 318.623 544.8 326.089 548.498C329.942 550.421 345.934 551.121 354.456 549.817Z" fill="#4A667B"/>
<path d="M447.456 543.929C451.958 543.204 453.326 542.692 455.259 540.71C457.273 538.653 457.597 537.771 457.606 534.017C457.614 530.484 457.215 529.232 455.292 526.799C454.01 525.176 451.604 523.11 449.999 522.149C447.351 520.597 446.386 520.521 440.358 520.875C436.66 521.087 432.56 521.739 431.353 522.325C430.146 522.911 427.734 523.568 426.045 523.858C424.357 524.149 422.346 524.954 421.621 525.614C420.815 526.275 419.286 527.449 418.079 528.108C415.342 529.721 414.611 533.031 415.967 537.304C416.685 539.661 417.566 540.84 419.011 541.359C420.055 541.73 421.179 542.395 421.419 542.763C422.701 544.606 438.612 545.38 447.456 543.929Z" fill="#4A667B"/>
<path d="M562.627 542.438C564.96 541.413 567.133 539.946 567.376 539.21C567.619 538.475 568.425 537.373 569.15 536.712C569.956 535.904 570.604 533.845 570.771 530.975C571.021 527.222 570.783 526.191 569.42 524.715C568.458 523.756 567.737 522.724 567.738 522.356C567.739 522.062 566.133 521.248 564.126 520.507C561.155 519.47 558.985 519.317 552.635 519.67C548.375 519.881 542.026 519.719 538.572 519.269C533.269 518.594 531.822 518.738 528.364 519.833C521.768 521.952 516.37 527.754 517.486 531.437C519.002 536.224 521.405 539.322 524.938 540.728C526.865 541.543 528.953 542.21 529.516 542.211C530.159 542.213 530.72 542.509 530.88 542.951C531.36 544.129 541.323 545.11 550.004 544.689C556.996 544.412 559.167 544.049 562.627 542.438Z" fill="#4A667B"/>
<path d="M492.143 542.858C492.144 542.49 492.788 542.124 493.591 542.126C496.002 542.132 499.866 539.491 500.917 537.065C502.694 533.241 501.496 530.074 497.404 527.488C493.953 525.345 485.922 522.971 482.064 522.961C479.653 522.956 473.701 525.076 473.698 526.033C473.697 526.401 472.811 527.503 471.683 528.457C468.865 530.806 468.132 534.778 470.297 536.771C471.179 537.583 472.061 538.689 472.22 539.204C472.859 541.046 480.97 543.421 486.757 543.508C489.811 543.589 492.142 543.3 492.143 542.858Z" fill="#4A667B"/>
<path d="M203.184 524.137C204.793 523.478 206.402 522.451 206.645 521.716C206.888 521.054 207.855 519.952 208.741 519.292C210.431 518.045 211.162 514.882 212.477 502.814C212.808 499.907 213.724 492.458 214.668 484.784L214.846 483.333C215.014 481.968 215.182 480.605 215.346 479.268C216.493 469.996 217.399 460.651 217.485 458.517C217.49 456.456 217.896 454.469 218.299 454.25C218.781 454.03 219.106 452.927 219.189 451.823C219.273 449.983 219.273 449.983 219.991 452.34C220.47 453.666 221.501 459.336 222.292 464.858C224.586 480.173 227.759 497.551 228.639 499.172C229.039 499.983 229.917 502.561 230.635 504.992C232.07 509.779 237.191 519.433 238.235 519.436C238.637 519.437 239.118 520.027 239.438 520.837C240.076 522.826 246.5 524.902 250.439 524.396C254.459 523.891 256.955 521.836 260.184 516.176L262.766 511.766L262.738 489.685C262.69 476.363 262.313 465.689 261.677 462.817C261.201 460.166 260.567 456.411 260.411 454.35L260.133 451.559C257.183 421.945 256.563 415.722 253.088 411.442C252.164 410.303 251.037 409.302 249.611 408.034C249.499 407.936 249.386 407.835 249.271 407.732C246.865 405.592 242.692 402.859 239.883 401.601C235.307 399.456 233.861 399.231 222.45 398.468C209.995 397.702 191.428 398.468 188.129 399.932C187.482 400.218 186.89 400.477 186.346 400.714L186.327 400.723L186.323 400.724C183.144 402.112 181.639 402.77 180.707 403.845C179.868 404.812 179.494 406.117 178.784 408.597C178.661 409.026 178.528 409.49 178.381 409.992C177.327 413.67 176.11 418.746 175.702 421.394C174.803 427.281 175.392 449.952 176.511 452.678C176.991 453.783 177.689 464.31 178.062 476.161C179.038 505.163 179.903 513.188 182.624 517.905C184.785 521.885 187.272 523.436 192.655 524.479C197.876 525.375 199.966 525.307 203.184 524.137Z" fill="#4A667B"/>
<path d="M373.585 515.269C378.903 509.688 379.72 503.949 380.614 466.045C381.424 429.908 382.586 414.527 384.762 411.957C385.164 411.589 385.811 410.045 386.216 408.648C386.945 406.441 387.024 406.883 387.091 412.477C387.155 419.543 389.126 435.446 390.246 437.731C390.646 438.541 391.678 443.622 392.63 449.071C393.501 454.446 394.615 459.233 395.015 459.749C395.416 460.192 396.293 463.065 397.009 466.084C397.806 469.104 398.843 472.271 399.484 473.156C400.044 474.041 401.323 477.061 402.28 480.008C403.238 482.881 404.358 485.238 404.679 485.239C405 485.24 406.039 487.819 406.996 490.986C407.872 494.153 409.39 498.131 410.27 499.826C411.15 501.447 411.869 503.289 411.868 503.878C411.863 506.013 416.985 514.71 418.271 514.713C418.593 514.714 419.716 515.526 420.758 516.559C422.282 518.035 423.486 518.406 426.781 518.413C430.157 518.421 431.202 518.13 432.894 516.441C434.103 515.266 435.312 513.502 435.556 512.325C435.88 511.222 436.445 510.119 436.848 509.899C437.813 509.387 437.767 495.107 436.804 494.516C436.403 494.295 436.005 492.674 436.009 490.981C436.018 487.375 433.16 472.353 432.12 470.216C431.72 469.405 430.604 465.575 429.649 461.746C428.694 457.916 427.577 454.454 427.257 454.012C426.295 452.979 422.478 435.894 421.53 428.973C420.584 421.242 419.229 416.602 415.474 407.172C413.716 402.899 412.121 397.448 411.806 395.019C411.175 390.086 409.82 385.004 409.018 384.413C408.778 384.192 407.656 382.496 406.536 380.58C405.496 378.59 404.374 377.042 404.133 377.041C403.812 377.04 402.929 376.449 402.047 375.638C401.165 374.9 399.56 373.865 398.436 373.347C396.108 372.164 379.474 371.462 370.953 372.104C365.406 372.606 364.602 372.899 359.852 376.2C350.112 382.874 343.828 389.484 343.819 393.016C343.818 393.458 343.496 393.825 343.094 393.824C341.647 393.821 339.774 404.047 339.755 411.996C339.736 420.24 341.624 437.394 342.9 441.298C343.299 442.55 344.412 447.852 345.364 453.08C346.315 458.382 347.349 463.022 347.67 463.39C348.07 463.833 349.098 470.901 350.043 479.221C350.907 487.54 352.014 495.345 352.413 496.597C352.892 497.849 353.208 499.984 353.205 501.383C353.194 505.946 355.509 512.355 358.235 515.38C360.72 518.109 360.96 518.256 365.702 518.268C370.524 518.279 370.765 518.206 373.585 515.269Z" fill="#4A667B"/>
<path d="M483.607 516.046C484.895 515.166 486.507 513.551 487.153 512.301C487.879 511.125 488.685 509.95 489.088 509.73C490.134 509.07 492.162 501.199 492.737 495.827C492.985 493.178 493.554 490.309 493.878 489.5C494.281 488.691 494.771 485.528 494.939 482.51C495.446 472.207 499.148 436.224 499.63 436.519C499.951 436.667 500.828 439.54 501.624 442.928C502.419 446.315 503.536 449.777 504.097 450.662C504.737 451.547 505.935 454.862 506.892 457.955C507.849 461.123 508.886 464.216 509.287 464.806C509.607 465.469 510.725 468.49 511.601 471.51C512.559 474.53 513.597 477.403 513.997 477.772C514.318 478.214 515.037 479.835 515.596 481.456C516.155 483.076 517.514 486.171 518.553 488.381C519.673 490.592 521.109 495.233 521.743 498.693C522.378 502.154 523.173 505.689 523.573 506.5C523.973 507.31 524.692 509.226 525.17 510.773C526.208 513.866 527.893 514.974 531.67 514.983C536.733 514.995 545.277 504.638 545.292 498.455C545.294 497.645 545.779 496.469 546.343 495.955C547.631 494.781 547.882 456.875 546.52 455.327C546.039 454.737 545.161 452.011 544.686 449.139C544.13 446.341 542.854 442.216 541.734 440.006C540.695 437.869 539.816 435.732 539.816 435.364C539.817 434.996 539.019 432.933 537.979 430.87C533.58 421.88 530.943 415.691 529.507 411.05C527.513 404.642 520.152 390.787 518.226 389.826C517.423 389.456 516.541 388.497 516.302 387.76C515.982 386.95 513.897 385.252 511.569 383.848C507.488 381.343 507.237 381.335 497.118 381.019L497.029 381.016C490.6 380.854 485.456 381.062 483.526 381.573C476.69 383.47 470.972 388.609 466.291 397.062C463.546 401.914 462.872 415.087 464.361 431.062C465.146 439.087 465.057 442.546 463.823 454.614C462.753 464.99 462.495 471.908 462.797 480.226C463.253 491.267 465.229 505.257 466.513 505.996C466.834 506.217 467.553 508.059 468.03 510.195C469.941 517.486 477.329 520.227 483.607 516.046Z" fill="#4A667B"/>
<path d="M157.082 511.514C158.613 509.898 158.075 499.814 156.39 498.632C156.149 498.41 155.029 496.421 153.909 494.21C152.789 491.999 151.669 490.009 151.428 489.788C151.107 489.566 150.07 486.399 149.114 482.79C148.078 479.107 147.042 475.498 146.642 474.688C146.083 473.288 145.686 471.079 143.47 456.647C142.996 453.187 142.28 450.094 141.96 449.651C141.639 449.283 140.607 444.275 139.656 438.605C138.624 432.935 137.592 427.634 137.192 426.823C136.792 426.012 135.677 421.741 134.563 417.248C132.096 406.938 127.309 392.279 124.67 386.679C124.543 386.366 124.393 386.032 124.268 385.754C124.158 385.51 124.068 385.309 124.031 385.206C123.951 384.985 123.711 384.322 123.391 383.732C123.152 383.143 122.114 379.975 121.158 376.734C120.121 373.493 119.083 370.694 118.842 370.473C118.601 370.251 117.882 368.704 117.323 367.083C116.206 363.842 113.241 360.155 111.794 360.151C111.392 360.15 109.702 361.398 108.091 362.866C105.352 365.435 105.19 365.95 105.18 370.219C105.174 372.722 105.49 374.931 105.892 375.152C106.212 375.374 106.771 377.215 107.087 379.203C107.404 381.191 108.36 384.8 109.238 387.158C110.117 389.515 111.792 394.892 112.826 399.164C113.941 403.362 115.138 407.192 115.458 407.634C115.859 408.003 116.496 410.507 117.052 413.158C117.609 415.809 118.643 420.081 119.441 422.732C120.238 425.384 121.513 430.171 122.228 433.412C123.024 436.652 123.9 439.966 124.3 440.777C124.7 441.587 125.816 445.417 126.771 449.247C127.727 453.077 128.763 456.612 129.164 456.981C129.484 457.423 130.522 460.517 131.398 463.979C132.354 467.367 133.392 470.313 133.712 470.609C134.354 471.052 135.552 474.293 137.066 479.67C137.624 481.585 138.344 483.132 138.665 483.133C138.987 483.134 139.706 484.681 140.264 486.67C141.699 491.678 142.896 495.214 143.537 496.025C143.858 496.468 144.896 499.193 145.853 502.213C148.246 509.727 150.329 512.602 153.544 512.61C154.91 512.613 156.518 512.102 157.082 511.514Z" fill="#4A667B"/>
<path d="M586.701 490.237C589.439 488.109 591.375 484.801 592.35 480.535C592.675 479.137 593.241 477.666 593.563 477.225C593.886 476.858 594.94 472.665 595.916 468.03C596.891 463.396 598.027 458.909 598.431 458.1C598.835 457.291 599.891 452.657 600.867 447.801C601.843 442.946 602.978 438.606 603.462 438.092C603.945 437.578 604.108 436.695 603.868 436.106C603.628 435.59 603.71 434.854 604.033 434.487C604.435 434.12 605.328 430.662 606.14 426.837C606.953 423.012 607.846 419.554 608.168 419.113C608.732 418.452 609.139 416.319 611.501 403.444C612.07 400.501 612.8 397.927 613.202 397.707C613.524 397.487 613.848 396.31 613.851 395.059C613.854 393.808 614.426 390.129 615.157 386.892C616.944 378.873 616.392 374.235 613.424 371.946C607.648 367.59 604.507 370.453 602.228 382.298C601.496 385.976 600.604 389.433 600.2 390.095C599.797 390.756 599.067 393.404 598.579 395.979C597.277 402.895 596.14 407.823 595.251 409.882C594.847 410.912 593.631 415.031 592.577 419.076C588.928 432.758 586.011 442.614 585.528 442.981C585.286 443.201 584.233 446.51 583.26 450.335C582.286 454.161 581.152 457.838 580.83 458.426C580.426 459.014 579.29 463.501 578.315 468.357C577.258 473.212 576.204 477.331 575.882 477.551C575.56 477.771 574.83 480.198 574.181 482.92C572.962 488.658 573.361 489.616 577.536 491.687C580.827 493.314 583.239 492.952 586.701 490.237Z" fill="#4A667B"/>
<path d="M46.71 421.676C48.1629 419.03 48.3281 417.19 47.2073 415.347C46.807 414.684 45.6903 411.148 44.8151 407.466C43.8592 403.857 42.8224 400.542 42.4216 400.1C42.101 399.731 41.0655 395.828 40.1114 391.483C39.2377 387.138 38.2028 383.014 37.7225 382.203C36.4419 379.992 34.5394 368.947 34.0777 360.334C33.7668 355.917 33.2154 351.205 32.8168 349.879C31.3803 345.607 35.7255 309.699 37.9817 307.202C38.3846 306.761 39.2746 304.261 39.9237 301.686C40.5728 299.112 41.7855 296.097 42.5118 294.847C43.3183 293.672 44.6105 291.025 45.4191 288.966C46.3079 286.981 47.1963 285.143 47.5183 284.923C47.8403 284.703 49.9381 281.248 52.2782 277.279C54.6185 273.237 57.4418 268.901 58.4895 267.652C59.5375 266.33 60.4247 265.007 60.4255 264.639C60.4264 264.271 61.3935 263.169 62.4405 262.215C63.568 261.261 64.4546 260.159 64.4559 259.644C64.4569 259.202 65.5047 257.953 66.793 256.926L69.1281 255.091L70.4768 262.455C71.2706 266.579 72.1459 270.261 72.3861 270.629C72.7065 271.072 73.8254 273.724 74.8635 276.524C75.821 279.396 76.9399 282.049 77.3408 282.418C77.6613 282.86 78.7003 285.292 79.7387 287.944C80.6968 290.596 81.7361 292.88 82.0571 293.102C82.378 293.323 83.4174 295.607 84.3755 298.259C85.3336 300.911 86.7719 304.374 87.6521 305.995C88.4519 307.617 89.489 310.858 89.9654 313.288C90.9184 318.074 92.3615 319.55 96.0583 319.632C99.7552 319.641 102.09 317.806 102.097 314.936C102.105 311.771 100.755 304.996 99.7143 303.08C99.3144 302.269 98.118 298.439 97.002 294.609C92.4605 278.038 90.8656 272.808 90.226 271.408C89.7457 270.597 88.6285 267.282 87.6718 264.042C86.7151 260.801 85.677 258.001 85.356 257.78C85.0351 257.558 84.5555 256.453 84.237 255.201C83.6792 253.212 80.8012 246.802 76.4817 238.254C75.6819 236.633 74.6448 233.392 74.1683 231.035C73.0554 225.88 70.9697 224.256 66.2266 224.834C61.2424 225.41 53.7529 231.796 51.5698 237.311C51.0034 238.929 49.8746 240.472 49.07 240.838C47.7022 241.497 47.3795 242.012 42.8601 249.877C41.4882 252.229 39.8753 254.58 39.2313 255.02C38.6677 255.46 37.5381 257.298 36.8104 259.136C36.0024 260.974 35.1145 262.591 34.7925 262.811C34.4705 263.032 33.5824 264.722 32.774 266.708C31.9657 268.619 30.8357 270.678 30.111 271.265C29.4666 271.852 28.2542 274.72 27.3634 277.588C26.4725 280.456 25.2603 283.25 24.6965 283.764C24.1327 284.278 22.9998 287.514 22.1881 290.898C21.4569 294.208 20.4854 297.15 20.0831 297.37C19.6807 297.59 18.7872 301.562 18.1332 306.198C17.3988 310.833 16.2558 318.338 15.6023 322.752C13.8063 334.451 14.3164 356.46 16.6169 369.125C17.649 374.427 18.6824 379.213 18.9221 379.803C19.1618 380.392 19.3206 381.202 19.2393 381.57C19.1579 382.012 19.3968 382.969 19.877 383.78C20.2768 384.664 21.5539 388.347 22.5901 391.956C25.9386 403.225 29.5371 410.815 35.6247 419.368C38.5885 423.496 39.1502 423.866 42.9273 423.948C45.0167 424.027 45.6607 423.587 46.71 421.676Z" fill="#4A667B"/>
<path d="M227.215 388.764C231.396 388.111 235.255 387.385 235.658 387.018C236.141 386.724 238.795 385.847 241.61 385.118C244.344 384.389 247.803 382.998 249.172 382.045C250.62 381.091 252.149 380.359 252.551 380.36C254.319 380.291 258.508 376.252 259.318 373.752C259.803 372.354 260.3 366.32 260.555 360.359C260.73 354.397 261.305 349.099 261.708 348.585C262.111 348.071 263.003 345.129 263.572 342.112C264.142 339.096 265.844 333.138 267.301 328.946C268.838 324.755 270.052 320.93 270.053 320.489C270.054 320.047 270.782 318.429 271.669 316.886C272.557 315.416 273.284 313.798 273.285 313.283C273.286 312.842 274.579 310.048 276.193 307.181C278.372 303.212 280.145 301.155 283.044 299.101C285.942 297.121 287.07 295.798 287.476 293.812C288.371 289.545 287.439 275.779 286.079 273.347C285.438 272.168 284.321 269.147 283.603 266.643C282.248 262.077 273.607 245.79 271.122 243.208C269.278 241.216 265.102 239.734 262.449 240.243C259.554 240.751 257.864 242.072 252.706 247.874C244.245 257.496 235.394 261.597 225.753 260.323C220.611 259.648 213.945 257.645 213.144 256.539C212.744 256.096 208.73 253.952 202.308 250.846C198.054 248.775 192.185 249.349 185.346 252.572C181.967 254.109 178.828 256.089 178.424 256.898C177.94 257.706 177.295 258.514 176.973 258.734C175.847 259.394 169.074 268.725 168.587 270.344C168.264 271.226 167.7 271.961 167.378 271.96C167.057 271.959 166.089 273.355 165.281 275.12C164.554 276.811 163.261 279.531 162.454 281.149C161.646 282.766 160.352 286.222 159.622 288.87C158.893 291.518 158.003 293.798 157.762 294.018C157.44 294.238 156.713 295.708 156.066 297.326C154.61 301.297 149.525 310.486 146.461 314.821C143.073 319.744 133.655 326.346 125.449 329.712C116.841 333.225 113.702 335.352 111.603 339.395C110.068 342.483 110.068 342.777 111.265 346.166C111.984 348.081 113.345 350.366 114.467 351.325C119.6 355.754 140.736 356.393 146.371 352.211C146.779 351.893 148.364 350.731 150.306 349.308L150.311 349.304C151.054 348.76 151.85 348.177 152.651 347.589C158.448 343.334 159.415 342.379 160.868 339.512C161.433 338.336 162.159 337.454 162.48 337.455C162.802 337.456 163.769 336.207 164.576 334.737C165.242 333.579 166.59 331.304 167.937 329.029C168.385 328.272 168.833 327.515 169.257 326.799C171.031 324.006 173.051 319.742 173.86 317.389C174.669 315.109 176.366 311.286 177.657 308.933L179.998 304.744L179.772 331.976C179.547 358.988 180.002 370.324 181.676 376.29C182.712 380.046 186.721 384.104 191.538 386.176C199.406 389.581 214.111 390.646 227.215 388.764Z" fill="#4A667B"/>
<path d="M515.288 374.509C515.852 374.143 518.104 373.559 520.274 373.343C527.027 372.476 529.601 371.452 536.846 366.464C542.079 362.87 544.254 360.888 545.304 358.682C546.111 356.992 547.079 355.448 547.482 355.228C548.931 354.349 552.335 342.359 552.992 336.178C554.474 321.535 555.384 310.644 555.394 306.301C555.405 301.738 555.893 299.384 556.938 299.386C557.179 299.387 558.14 300.861 559.019 302.703C559.899 304.545 560.779 306.019 561.101 306.02C561.342 306.021 562.545 307.275 563.666 308.823C564.707 310.298 567.032 312.88 568.716 314.503C570.4 316.126 574.248 320.11 577.294 323.356C588.597 335.306 604.716 350.139 606.965 350.66C611.062 351.626 620.145 350.765 621.917 349.297C623.608 347.902 624.343 342.973 622.896 342.969C622.494 342.968 621.934 342.157 621.695 341.2C621.456 340.242 619.774 337.736 618.011 335.671C616.248 333.606 614.806 331.762 614.807 331.468C614.807 331.173 614.086 330.288 613.204 329.403C607.992 324.459 596.372 310.521 596.375 309.196C596.376 308.828 595.815 308.09 595.254 307.574C594.612 307.131 593.25 305.14 592.29 303.298C591.25 301.381 589.969 299.391 589.408 298.875C588.846 298.358 588.366 297.547 588.367 297.179C588.368 296.738 586.929 293.643 585.169 290.253C583.409 286.863 581.97 283.621 581.971 283.106C581.972 282.591 581.413 281.191 580.773 280.085C580.132 278.98 578.856 275.002 577.82 271.246C576.865 267.49 575.827 264.322 575.587 264.101C575.266 263.879 574.388 261.08 573.592 257.84C572.797 254.599 570.88 249.663 569.44 246.863C569.312 246.632 569.191 246.411 569.074 246.198C566.404 241.34 566.378 241.292 562.23 236.909C559.264 233.811 559.184 233.737 555.325 234.17C549.296 234.744 544.629 237.162 541.002 241.569C537.375 245.977 531.339 249.201 525.793 249.703C522.819 249.99 521.292 249.619 517.279 247.622C514.549 246.291 510.216 243.704 507.648 241.858C502.995 238.608 491.286 228.055 491.288 227.098C491.289 226.804 489.766 225.107 488.002 223.337C486.158 221.566 484.074 219.206 483.353 218.173C480.871 214.414 477.34 212.344 473.482 212.335C469.946 212.327 467.934 213.205 464.471 216.435C458.108 222.309 457.135 225.913 457.822 241.003C458.359 251.75 460.097 264.414 461.376 267.141C461.776 267.951 462.894 271.119 463.851 274.139C464.808 277.159 465.846 280.326 466.245 281.137C466.645 281.948 467.679 286.587 468.552 291.447C470.376 301.535 472.376 305.588 478.068 311.416C480.153 313.408 483.359 316.728 485.203 318.793C487.047 320.785 489.291 323.072 490.093 323.884C490.895 324.695 492.176 326.833 492.975 328.675C493.774 330.517 494.734 332.58 495.134 333.243C496.015 334.791 496.089 337.073 495.284 337.734C495.042 338.027 494.154 339.939 493.345 341.924C491.405 346.925 487.699 350.375 483.035 351.468C481.025 351.979 478.612 352.635 477.728 352.928C476.843 353.293 474.591 353.803 472.823 354.02C468.722 354.599 462.843 359.884 462.836 362.976C462.828 366.361 464.586 370.561 466.032 370.564C466.756 370.566 468.603 371.086 470.048 371.752C474.062 373.675 477.837 374.42 485.712 375.028C494.631 375.785 514.081 375.39 515.288 374.509Z" fill="#4A667B"/>
<path d="M369.195 368.052C370.964 367.614 380.77 367.123 390.977 366.853C402.953 366.513 409.946 366.088 410.67 365.575C411.315 365.061 413.728 364.183 415.979 363.6C425.389 361.046 428.05 357.078 426.707 347.212C425.839 340.733 424.567 334.768 423.528 332.557C421.928 329.168 420.35 317.167 420.37 308.629C420.382 303.55 420.809 293.173 421.389 285.593L422.387 271.685L423.827 274.412C424.708 275.886 425.904 279.642 426.54 282.735C427.175 285.828 427.971 289.068 428.452 289.879C428.851 290.69 430.048 294.373 431.165 297.982C433.716 306.747 435.394 310.799 437.557 313.454C438.519 314.708 439.961 316.698 440.601 317.877C445.723 326.943 447.726 329.45 454.463 335.134C456.468 336.831 463.774 340.161 468.512 341.571C476.142 343.723 481.691 342.265 482.666 337.851C483.398 334.099 482.443 330.416 480.276 329.16C479.233 328.495 477.949 327.535 477.307 327.018C476.666 326.501 475.061 325.394 473.696 324.581C469.282 321.994 465.834 318.821 462.31 313.955C460.467 311.374 458.946 309.015 458.947 308.647C458.948 308.279 458.068 306.29 457.029 304.153C455.989 302.016 454.471 298.258 453.753 295.828C453.036 293.397 452.078 290.598 451.679 289.567C451.279 288.535 450.325 284.117 449.452 279.625C447.945 271.378 444.36 257.973 443.081 255.321C442.741 254.746 442.16 253.507 441.538 252.178L441.537 252.176L441.536 252.175C441.28 251.628 441.017 251.067 440.761 250.531C437.164 242.647 428.175 237.252 418.611 237.229C413.146 237.216 412.824 237.436 400.016 249.771L399.736 250.039C394.518 255.013 392.504 256.933 390.071 257.636C388.542 258.078 386.848 258.04 384.088 257.977L384.084 257.977C380.628 257.895 377.415 257.519 376.853 257.15C376.291 256.781 373.802 255.891 371.232 255.149C368.742 254.407 365.691 253.075 364.569 252.116C363.446 251.156 362.242 250.344 361.84 250.343C360.394 250.339 356.385 246.061 352.381 240.31C350.138 237.14 347.494 233.601 346.533 232.494C344.369 229.913 340.432 229.167 336.812 230.631C329.411 233.705 326.676 234.949 324.101 236.342C320.399 238.32 313.956 244.046 311.778 247.279C310.891 248.676 309.601 250.218 309.118 250.585C308.555 251.025 307.505 253.157 306.696 255.363C305.887 257.57 305.078 259.555 304.756 259.775C304.515 259.995 303.462 263.452 302.407 267.498C301.353 271.543 300.219 275.221 299.897 275.588C299.091 276.469 297.619 287.138 296.708 298.398C296.295 302.886 295.642 307.227 295.158 308.036C294.754 308.771 293.703 311.418 292.974 313.845C291.678 317.964 287.965 324.874 285.789 327.445C284.097 329.281 278.046 338.908 278.044 339.644C277.963 340.012 277.316 341.63 276.428 343.247C275.379 345.232 274.891 347.807 274.803 351.045C274.791 355.903 274.791 355.977 278.32 358.929C282.651 362.62 284.097 362.991 292.697 362.717C298.966 362.438 299.609 362.292 302.508 360.017C308.306 355.32 314.033 346.502 316.624 338.264C317.515 335.396 318.647 332.528 319.051 331.793C319.454 331.132 320.593 325.54 321.492 319.286C322.471 313.106 323.529 307.367 323.933 306.559C324.257 305.75 325.23 301.778 325.963 297.731C326.777 293.685 327.751 289.713 328.235 288.904C329.284 287.214 329.363 287.508 331.583 300.321C332.217 304.15 333.172 308.127 333.652 309.158C334.851 311.663 336.097 328.448 335.442 333.304C335.116 335.438 335.344 341.032 335.895 345.818C336.682 352.665 337.399 355.316 339.159 358.706C340.44 360.991 341.801 362.908 342.123 362.909C342.525 362.91 343.568 363.575 344.61 364.46C348.942 368.151 361.073 369.946 369.195 368.052Z" fill="#4A667B"/>
<path d="M632.006 331.214C633.212 330.849 634.501 329.601 634.986 328.498C635.38 327.542 635.987 326.343 636.418 325.494L636.419 325.491L636.564 325.204C636.606 325.121 636.646 325.042 636.682 324.969C637.409 323.499 639.514 316.953 640.326 313.569C640.57 312.54 641.054 311.584 641.296 311.364C641.618 311.144 642.671 307.687 643.725 303.641C644.699 299.595 646.076 295.33 646.641 294.08C647.207 292.903 648.262 288.563 648.995 284.517C649.808 280.471 650.701 276.866 651.103 276.426C651.426 276.058 652.56 272.234 653.535 267.967C654.59 263.7 655.643 260.096 655.965 259.876C656.287 259.656 657.178 256.861 657.989 253.625C658.72 250.388 659.934 246.858 660.499 245.755C661.145 244.653 661.55 243.476 661.55 243.182C661.471 242.887 661.553 242.078 661.876 241.49C662.361 240.166 665.443 228.544 666.579 223.836C666.985 221.997 668.2 218.172 669.332 215.305L671.434 210.084L674.808 210.754C676.655 211.127 680.351 211.798 683.002 212.172C685.653 212.62 688.947 213.291 690.312 213.662C691.677 214.033 695.052 214.336 697.945 214.342C704.134 214.357 710.409 211.796 714.035 207.83L714.388 207.428L714.389 207.426C715.594 206.052 716.92 204.539 717.58 203.938C718.225 203.203 719.194 201.071 719.681 199.158C720.248 197.172 721.461 194.158 722.43 192.32C723.399 190.482 724.692 187.394 725.259 185.334C725.827 183.348 727.122 179.303 728.174 176.435C729.225 173.567 730.116 170.772 730.118 170.184C730.119 169.595 730.604 168.271 731.25 167.242C731.815 166.139 733.109 162.83 734.08 159.889C735.052 156.873 736.184 153.932 736.507 153.344C738.847 149.375 740.962 138.707 739.923 136.202C738.405 132.518 732.054 133.092 730.197 137.062C729.631 138.312 728.905 139.341 728.584 139.34C727.86 139.338 727.375 140.736 725.751 147.798C725.021 150.667 723.968 153.976 723.402 155.152C722.757 156.402 721.785 159.491 721.296 162.14C720.808 164.788 719.513 168.613 718.544 170.598C717.494 172.656 716.2 176.112 715.632 178.319C715.064 180.526 714.335 182.732 714.013 183.099C713.691 183.54 712.8 186.335 711.989 189.351C710.286 195.971 709.72 197.074 706.498 200.231C704.484 202.14 703.439 202.579 700.626 202.572C698.697 202.568 696.929 202.269 696.689 201.827C696.449 201.458 695.164 201.087 693.878 201.084C692.592 201.081 691.388 200.784 691.147 200.415C690.426 199.383 692.528 194.309 697.291 185.488C697.614 184.753 697.938 183.65 697.94 183.061C697.941 182.472 698.264 181.958 698.666 181.959C699.067 181.96 699.957 179.754 700.767 177.032C701.497 174.237 702.63 171.001 703.276 169.752C703.922 168.502 705.38 163.353 706.437 158.351C707.494 153.348 709.279 146.139 710.413 142.315C712.762 134.739 713.011 131.501 711.571 128.627C710.771 127.006 710.209 126.784 706.432 126.775C700.405 126.76 698.311 128.595 697.17 134.849C696.762 137.498 696.033 140.146 695.629 140.807C695.306 141.469 694.576 144.558 694.005 147.796C693.026 154.123 691.89 158.684 690.84 160.963C690.436 161.772 689.706 164.42 689.138 166.847C688.569 169.275 687.84 171.996 687.436 172.952C687.031 173.908 686.706 175.453 686.704 176.41C686.701 177.44 686.378 178.249 685.976 178.248C685.574 178.247 685.09 179.129 684.846 180.233C683.871 184.794 681.605 191.486 681.042 191.485C680.721 191.484 679.914 192.954 679.347 194.793C678.78 196.632 678.053 198.102 677.731 198.101C677.41 198.101 675.884 197.582 674.278 196.989C672.03 196.101 671.389 195.437 671.392 193.965C671.4 190.652 673.923 177.263 675.056 174.174C675.703 172.556 676.758 168.29 677.49 164.611C678.222 161.007 679.276 157.035 679.841 155.785C680.407 154.608 681.542 150.416 682.355 146.59C683.087 142.765 684.061 138.94 684.384 138.131C685.676 135.484 686.656 128.936 686.345 124.666C685.8 117.452 680.102 114.126 675.27 118.236C674.142 119.19 673.175 120.366 673.174 120.807C673.173 121.249 672.445 123.014 671.557 124.778C670.749 126.469 669.374 130.367 668.643 133.383C667.913 136.399 667.022 139.193 666.619 139.56C666.297 140.001 665.161 144.268 664.266 149.05C663.29 153.831 662.235 158.319 661.831 158.98C660.459 161.332 658.576 176.122 658.554 185.028L658.533 194.155L656.524 193.782C655.4 193.632 654.517 193.115 654.518 192.747C654.519 192.379 654.037 192.157 653.555 192.229C652.992 192.301 651.466 192.003 650.261 191.559C648.976 191.041 647.45 190.669 646.807 190.667C644.155 190.661 642.474 187.86 642.484 183.518C642.494 179.543 645.671 161.444 646.802 159.018C647.045 158.43 647.937 154.973 648.669 151.294C649.321 147.689 650.455 143.717 651.021 142.467C651.667 141.291 652.558 138.128 653.047 135.48C654.187 129.079 655.404 124.445 656.534 122.313C657.099 121.358 657.509 118.12 657.516 115.176C657.526 110.686 657.288 109.582 655.924 108.695C652.473 106.332 646.282 107.715 644.988 111.172C644.503 112.348 643.857 113.377 643.536 113.376C642.652 113.374 641.274 118.008 640.213 124.777C639.643 128.014 638.913 131.03 638.59 131.397C637.865 132.205 635.672 141.842 634.854 147.802C634.528 149.862 634.042 151.627 633.72 151.626C632.675 151.624 630.304 168.474 630.205 176.496C630.188 183.783 631.855 192.472 633.54 193.58C633.78 193.801 634.662 194.834 635.383 195.866C637.385 198.741 643.406 201.7 649.11 202.523C651.223 202.813 653.769 203.192 655.52 203.452L655.523 203.453C655.84 203.5 656.131 203.543 656.389 203.581C656.547 203.605 656.692 203.626 656.822 203.645L659.554 204.02L658.981 208.435C658.734 210.863 657.761 214.247 656.954 215.938C656.066 217.702 654.932 221.379 654.362 224.249C653.873 227.044 653.144 229.692 652.741 230.133C652.338 230.574 651.285 234.178 650.391 238.15C649.497 242.123 648.364 245.8 647.961 246.241C647.477 246.755 646.424 250.212 645.531 253.963C644.638 257.715 643.585 261.172 643.182 261.612C642.779 262.053 641.646 265.51 640.673 269.261C639.699 272.939 638.647 276.028 638.326 276.027C638.004 276.026 637.033 278.894 636.221 282.499C635.409 286.03 634.355 289.929 633.709 291.105C633.143 292.355 632.091 295.443 631.442 298.018C630.713 300.592 629.58 303.681 628.934 305.004C626.027 310.812 623.746 323.466 624.779 328.474C625.414 331.714 627.904 332.677 632.006 331.214Z" fill="#4A667B"/>
<path fill-rule="evenodd" clip-rule="evenodd" d="M237.103 252.695C238.31 252.109 240.001 251.009 240.806 250.128C241.692 249.247 242.819 248.587 243.301 248.588C243.864 248.589 245.718 246.091 247.414 242.93C250.238 237.932 250.563 236.682 250.818 230.941C251.24 222.331 250.28 220.562 242.017 214.065C233.835 207.642 230.944 206.678 219.291 206.43C209.808 206.333 206.833 207.062 206.827 209.491C206.825 210.301 206.502 210.963 206.181 210.962C204.895 210.959 202.71 217.136 202.216 222.066C201.886 225.893 202.121 228.102 203.478 232.227C204.435 235.1 205.475 237.457 205.796 237.458C206.117 237.459 207.078 239.007 207.877 240.996C210.196 246.007 215.971 250.731 219.989 250.74C220.632 250.742 221.194 251.038 221.193 251.406C221.189 253.319 233.643 254.38 237.103 252.695ZM219.22 236.46C220.102 237.345 221.386 238.231 222.028 238.454C225.722 239.714 231.512 238.035 232.483 235.461C232.968 234.358 233.695 232.888 234.179 232.153C235.873 229.433 229.377 223.677 223.833 223.001C221.101 222.627 220.619 222.846 219.248 224.683C217.151 227.696 217.135 234.467 219.22 236.46Z" fill="#4A667B"/>
<path fill-rule="evenodd" clip-rule="evenodd" d="M393.911 248.726C395.762 247.627 397.695 245.791 398.261 244.688C398.745 243.586 399.471 242.557 399.793 242.337C400.598 241.75 402.863 235.573 402.868 233.659C402.87 232.702 403.275 231.231 403.76 230.423C405.454 227.556 406.999 219.979 407.011 214.9C407.023 209.969 405.114 201.868 403.908 201.865C403.587 201.864 402.625 200.537 401.826 198.842C398.625 192.799 390.999 189.321 380.872 189.297C374.443 189.356 370.422 190.229 362.78 193.45C357.229 195.792 356.263 196.452 354.97 199.098C354.163 200.716 352.872 202.7 352.147 203.361C351.342 204.095 350.697 205.05 350.696 205.418C350.695 205.86 349.967 207.624 349.079 209.242C347.384 212.476 346.803 220.129 348.25 220.133C348.732 220.134 349.053 220.503 349.051 220.944C349.046 223.153 356.651 235.683 359.779 238.635C364.51 243.062 366.275 244.465 367.078 244.467C367.4 244.468 368.925 245.281 370.369 246.315C375.424 249.86 379.519 251.121 385.226 250.914C389.486 250.777 391.255 250.339 393.911 248.726ZM379.578 226.39C378.054 225.43 375.809 223.069 374.608 221.153C373.487 219.31 371.484 217.023 370.36 216.137L368.194 214.587L370.126 213.414C375.357 210.261 381.545 210.423 385.556 213.818C387.4 215.368 387.88 216.547 388.193 220.007C388.897 228.105 385.757 230.453 379.578 226.39Z" fill="#4A667B"/>
<path fill-rule="evenodd" clip-rule="evenodd" d="M535.402 230.736C546.506 225.095 548.038 222.891 547.822 212.66C547.75 208.832 547.357 205.372 546.956 204.929C546.555 204.413 545.596 202.203 544.798 199.993C543.999 197.783 542.479 195.203 541.516 194.317C540.474 193.432 539.592 192.252 539.594 191.663C539.598 189.97 530.615 182.368 526.36 180.444C520.098 177.632 515.837 177.99 507.068 182.017C505.78 182.603 503.042 184.952 501.028 187.229C494.581 194.573 494.257 195.309 494.163 201.344C494.151 206.349 494.47 207.454 497.43 213.128C499.27 216.592 501.029 220.203 501.348 221.234C502.226 223.886 506.555 228.386 509.205 229.423C510.409 229.867 511.372 230.532 511.371 230.9C511.369 232.004 516.51 232.899 523.743 232.99C530.333 233.08 531.217 232.935 535.402 230.736ZM514.647 205.515C516.883 211.408 520.891 215.613 525.228 216.801C531.413 218.435 533.585 217.557 532.871 213.581C532.236 210.194 524.956 196.265 522.79 194.494C520.223 192.353 516.765 193.522 514.506 197.197L512.65 200.284L514.647 205.515Z" fill="#4A667B"/>
<path d="M246.388 201.342C250.249 199.658 251.309 193.331 247.776 192.292C246.973 191.996 246.25 191.479 246.251 191.111C246.254 190.08 239.342 190.285 238.294 191.386C235.796 194.177 236.744 200.951 239.636 201.694C242.206 202.363 244.296 202.22 246.388 201.342Z" fill="#4A667B"/>
<path d="M220.355 198.483C222.528 197.237 222.931 196.649 222.937 194.147C222.952 188.111 215.165 184.265 211.137 188.377C208.317 191.168 208.313 193.081 211.038 195.958C212.321 197.286 214.167 198.468 214.971 198.47C215.774 198.472 216.497 198.842 216.496 199.21C216.493 200.314 217.378 200.095 220.355 198.483Z" fill="#4A667B"/>
<path d="M362.392 187.34C366.179 183.595 364.181 178.732 358.797 178.499C356.868 178.42 355.903 178.933 354.371 180.77C352.356 183.12 351.708 185.548 353.074 185.551C353.476 185.552 354.037 186.216 354.356 186.952C355.314 189.678 359.814 189.91 362.392 187.34Z" fill="#4A667B"/>
<path d="M396.073 184.549C396.718 183.888 397.525 182.198 397.85 180.726C398.338 178.298 398.099 177.783 395.853 175.937C392.724 173.354 391.117 173.35 387.896 175.918C384.595 178.634 384.346 181.872 387.395 184.087C389.882 185.933 394.301 186.091 396.073 184.549Z" fill="#4A667B"/>
<path d="M219.756 180.007C225.704 179.653 236.073 179.163 242.664 178.958C249.335 178.826 256.006 178.327 257.534 178.036C259.062 177.672 262.921 176.945 265.976 176.511C269.112 176.003 272.328 175.275 273.213 174.835C275.627 173.737 277.642 171.313 277.646 169.62C277.571 167.412 273.881 164.459 269.624 163.271C265.448 162.01 263.683 160.681 262.805 158.176C262.087 155.966 260.805 154.491 254.39 148.514C248.616 143.201 246.369 141.723 238.02 137.802C232.481 135.213 226.054 134.315 224.282 135.856C223.799 136.223 222.109 136.881 220.501 137.319C217.606 138.195 207.78 146.857 207.776 148.697C207.775 149.139 207.209 150.536 206.483 151.712C205.756 152.961 204.464 155.755 203.574 157.961C201.957 162.079 200.588 163.474 195.195 166.774C190.849 169.413 185.211 174.552 185.208 175.729C185.204 177.57 188.815 180.007 192.51 180.752C195.964 181.423 198.375 181.355 219.756 180.007Z" fill="#4A667B"/>
<path d="M332.678 178.142C332.92 177.774 334.126 177.409 335.332 177.412C337.904 177.418 353.823 174.586 355.995 173.781C356.88 173.415 359.212 172.906 361.222 172.69C367.733 171.896 377.703 170.079 379.312 169.421C380.197 169.055 384.218 168.255 388.157 167.602C392.177 167.022 396.841 166.003 398.61 165.419C400.38 164.834 404.722 163.667 408.18 162.865C411.718 162.064 415.257 160.821 416.063 160.161C418.317 158.326 417.922 155.675 415.352 154.712C414.068 154.268 412.462 153.601 411.739 153.232C410.937 152.862 409.732 152.564 409.008 152.563C408.285 152.561 406.278 151.526 404.594 150.271C402.829 149.015 400.501 147.758 399.296 147.461C397.93 147.163 396.968 146.278 396.569 145.099C395.852 142.448 392.007 137.066 390.562 136.547C389.839 136.324 388.395 135.29 387.352 134.405C386.39 133.446 384.785 132.632 383.901 132.63C383.017 132.628 382.053 132.331 381.813 131.889C381.172 131.004 370.403 130.905 369.838 131.787C369.596 132.081 367.666 132.812 365.575 133.322C362.198 134.198 355.677 138.893 355.673 140.512C355.672 140.806 354.543 142.202 353.254 143.597C351.885 144.993 350.594 146.83 350.351 147.639C350.028 148.448 348.899 150.138 347.69 151.46C347.305 151.911 346.855 152.43 346.393 152.962C345.501 153.99 344.567 155.068 343.983 155.793C343.096 156.895 340.196 159.906 337.537 162.476C329.965 169.818 326.897 175.92 329.705 177.914C331.39 179.022 332.033 179.097 332.678 178.142Z" fill="#4A667B"/>
<path d="M509.096 174.146C510.223 173.119 510.709 171.721 510.715 169.145C510.722 166.127 510.403 165.243 508.317 163.619C506.071 161.774 501.894 160.881 501.891 162.205C501.89 162.573 501.004 163.234 499.878 163.673C498.108 164.405 497.866 164.993 497.859 168.011C497.852 170.734 498.251 171.912 500.016 173.536C502.662 176.045 506.679 176.349 509.096 174.146Z" fill="#4A667B"/>
<path d="M532.168 171.404C533.697 170.525 534.911 166.774 534.435 164.491C533.399 160.441 526.894 158.659 523.592 161.668C521.981 163.137 521.327 167.772 522.609 169.468C524.131 171.606 529.834 172.724 532.168 171.404Z" fill="#4A667B"/>
<path d="M495.309 158.583C499.892 157.858 504.395 156.838 505.361 156.325C506.568 155.74 513.159 155.387 524.813 155.194C534.538 155.07 543.62 154.65 545.068 154.286C549.732 152.972 549.26 148.628 544.362 146.997C542.755 146.552 540.91 145.075 539.709 143.38C534.903 136.523 525.923 127.89 521.106 125.45C519.18 124.562 517.173 123.379 516.612 122.863C515.008 121.461 510.028 120.418 504.723 120.406C500.544 120.396 499.338 120.687 496.44 122.594C493.462 124.574 488.304 130.671 488.3 132.29C488.299 132.585 487.009 134.348 485.477 136.258C483.946 138.094 482.655 140.226 482.653 141.035C482.651 141.771 482.328 142.433 481.926 142.432C481.525 142.431 480.557 143.901 479.668 145.739C478.618 148.165 477.893 148.9 476.849 148.603C476.126 148.38 474.84 148.524 474.035 148.964C473.23 149.33 471.943 149.842 471.139 150.061C469.048 150.645 468.076 153.66 469.034 156.312C469.673 158.007 470.636 158.745 472.805 159.266C479.712 160.975 481.802 160.906 495.309 158.583Z" fill="#4A667B"/>
</svg>
